<svg width="60" height="60" viewBox="0 0 60 60" fill="none" xmlns="http://www.w3.org/2000/svg">
<path d="M30.2153 3.96069H31.4653C31.4653 3.48723 31.1978 3.0544 30.7743 2.84266L30.2153 3.96069ZM30.2153 7.96069L30.7743 9.07873C31.1978 8.86699 31.4653 8.43416 31.4653 7.96069H30.2153ZM26.2153 9.96069L25.6563 8.84266C25.2578 9.04193 24.9954 9.43829 24.9677 9.88302C24.9401 10.3277 25.1512 10.7536 25.522 11.0008L26.2153 9.96069ZM32.2153 13.9607L31.522 15.0008C31.7273 15.1376 31.9685 15.2107 32.2153 15.2107V13.9607ZM34.2153 13.9607V15.2107C34.9057 15.2107 35.4653 14.651 35.4653 13.9607H34.2153ZM34.2153 9.96069V8.71069C33.525 8.71069 32.9653 9.27034 32.9653 9.96069H34.2153ZM40.2153 9.96069H41.4653C41.4653 9.27034 40.9057 8.71069 40.2153 8.71069V9.96069ZM40.2153 13.9607H38.9653C38.9653 14.2922 39.097 14.6102 39.3314 14.8446L40.2153 13.9607ZM42.2153 15.9607H43.4653C43.4653 15.6292 43.3336 15.3112 43.0992 15.0768L42.2153 15.9607ZM42.2153 19.9607L43.0992 20.8446C43.3336 20.6102 43.4653 20.2922 43.4653 19.9607H42.2153ZM40.2153 21.9607V23.2107C40.5469 23.2107 40.8648 23.079 41.0992 22.8446L40.2153 21.9607ZM36.2153 21.9607L35.6563 23.0787C35.8299 23.1655 36.0213 23.2107 36.2153 23.2107V21.9607ZM28.2153 17.9607L28.7743 16.8427C28.4224 16.6667 28.0082 16.6667 27.6563 16.8427L28.2153 17.9607ZM24.2153 19.9607V21.2107C24.4094 21.2107 24.6008 21.1655 24.7743 21.0787L24.2153 19.9607ZM18.2153 19.9607V18.7107C17.6417 18.7107 17.1418 19.1011 17.0027 19.6575L18.2153 19.9607ZM16.2153 27.9607L15.0027 27.6575C14.8962 28.0835 15.021 28.5341 15.3314 28.8446L16.2153 27.9607ZM22.2153 33.9607L21.3314 34.8446C21.4264 34.9396 21.5361 35.0186 21.6563 35.0787L22.2153 33.9607ZM26.2153 35.9607H27.4653C27.4653 35.4872 27.1978 35.0544 26.7743 34.8427L26.2153 35.9607ZM26.2153 41.9607H24.9653C24.9653 42.2922 25.097 42.6102 25.3314 42.8446L26.2153 41.9607ZM28.2153 43.9607H29.4653C29.4653 43.6292 29.3336 43.3112 29.0992 43.0768L28.2153 43.9607ZM28.2153 47.9607H26.9653C26.9653 48.1547 27.0105 48.3461 27.0973 48.5197L28.2153 47.9607ZM30.2153 51.9607L29.0973 52.5197C29.309 52.9432 29.7419 53.2107 30.2153 53.2107V51.9607ZM34.2153 51.9607V53.2107C34.6333 53.2107 35.0236 53.0018 35.2554 52.6541L34.2153 51.9607ZM38.2153 45.9607L39.2554 46.6541C39.2841 46.6109 39.3102 46.5661 39.3334 46.5197L38.2153 45.9607ZM40.2153 41.9607L41.3334 42.5197C41.4201 42.3461 41.4653 42.1547 41.4653 41.9607H40.2153ZM40.2153 37.9607L39.2153 37.2107C39.0531 37.4271 38.9653 37.6902 38.9653 37.9607H40.2153ZM46.2153 29.9607L47.2153 30.7107C47.4994 30.3319 47.5451 29.8252 47.3334 29.4017L46.2153 29.9607ZM44.2153 25.9607V24.7107C43.7821 24.7107 43.3798 24.935 43.152 25.3035C42.9243 25.672 42.9036 26.1322 43.0973 26.5197L44.2153 25.9607ZM50.2153 25.9607V27.2107C50.9057 27.2107 51.4653 26.651 51.4653 25.9607H50.2153ZM50.2153 21.9607V20.7107C49.525 20.7107 48.9653 21.2703 48.9653 21.9607H50.2153ZM30.2153 56.7107C15.4417 56.7107 3.46533 44.7343 3.46533 29.9607H0.965332C0.965332 46.115 14.061 59.2107 30.2153 59.2107V56.7107ZM56.9653 29.9607C56.9653 44.7343 44.9889 56.7107 30.2153 56.7107V59.2107C46.3697 59.2107 59.4653 46.115 59.4653 29.9607H56.9653ZM30.2153 3.21069C44.9889 3.21069 56.9653 15.1871 56.9653 29.9607H59.4653C59.4653 13.8064 46.3697 0.710693 30.2153 0.710693V3.21069ZM30.2153 0.710693C14.061 0.710693 0.965332 13.8064 0.965332 29.9607H3.46533C3.46533 15.1871 15.4417 3.21069 30.2153 3.21069V0.710693ZM25.6563 3.07873L29.6563 5.07873L30.7743 2.84266L26.7743 0.842659L25.6563 3.07873ZM28.9653 3.96069V7.96069H31.4653V3.96069H28.9653ZM29.6563 6.84266L25.6563 8.84266L26.7743 11.0787L30.7743 9.07873L29.6563 6.84266ZM25.522 11.0008L31.522 15.0008L32.9087 12.9206L26.9087 8.92063L25.522 11.0008ZM32.2153 15.2107H34.2153V12.7107H32.2153V15.2107ZM35.4653 13.9607V9.96069H32.9653V13.9607H35.4653ZM34.2153 11.2107H40.2153V8.71069H34.2153V11.2107ZM38.9653 9.96069V13.9607H41.4653V9.96069H38.9653ZM39.3314 14.8446L41.3314 16.8446L43.0992 15.0768L41.0992 13.0768L39.3314 14.8446ZM40.9653 15.9607V19.9607H43.4653V15.9607H40.9653ZM41.3314 19.0768L39.3314 21.0768L41.0992 22.8446L43.0992 20.8446L41.3314 19.0768ZM40.2153 20.7107H36.2153V23.2107H40.2153V20.7107ZM36.7743 20.8427L28.7743 16.8427L27.6563 19.0787L35.6563 23.0787L36.7743 20.8427ZM27.6563 16.8427L23.6563 18.8427L24.7743 21.0787L28.7743 19.0787L27.6563 16.8427ZM24.2153 18.7107H18.2153V21.2107H24.2153V18.7107ZM17.0027 19.6575L15.0027 27.6575L17.428 28.2639L19.428 20.2639L17.0027 19.6575ZM15.3314 28.8446L21.3314 34.8446L23.0992 33.0768L17.0992 27.0768L15.3314 28.8446ZM21.6563 35.0787L25.6563 37.0787L26.7743 34.8427L22.7743 32.8427L21.6563 35.0787ZM24.9653 35.9607V41.9607H27.4653V35.9607H24.9653ZM25.3314 42.8446L27.3314 44.8446L29.0992 43.0768L27.0992 41.0768L25.3314 42.8446ZM26.9653 43.9607V47.9607H29.4653V43.9607H26.9653ZM27.0973 48.5197L29.0973 52.5197L31.3334 51.4017L29.3334 47.4017L27.0973 48.5197ZM30.2153 53.2107H34.2153V50.7107H30.2153V53.2107ZM35.2554 52.6541L39.2554 46.6541L37.1753 45.2673L33.1753 51.2673L35.2554 52.6541ZM39.3334 46.5197L41.3334 42.5197L39.0973 41.4017L37.0973 45.4017L39.3334 46.5197ZM41.4653 41.9607V37.9607H38.9653V41.9607H41.4653ZM41.2153 38.7107L47.2153 30.7107L45.2153 29.2107L39.2153 37.2107L41.2153 38.7107ZM47.3334 29.4017L45.3334 25.4017L43.0973 26.5197L45.0973 30.5197L47.3334 29.4017ZM44.2153 27.2107H50.2153V24.7107H44.2153V27.2107ZM51.4653 25.9607V21.9607H48.9653V25.9607H51.4653ZM50.2153 23.2107H58.2153V20.7107H50.2153V23.2107Z" fill="white"/>
</svg>
