<svg width="79" height="112" viewBox="0 0 79 112" fill="none" xmlns="http://www.w3.org/2000/svg">
<path d="M0.198242 111L0.597273 0.718031L47.9931 11.9455C57.4027 14.1745 64.5555 21.8331 66.1375 31.3729L73.7767 77.4388C76.0296 91.0243 66.4131 103.715 52.7246 105.221L0.198242 111Z" fill="url(#paint0_linear)"/>
<path d="M49.9462 42.1007C49.9427 42.0972 49.9395 42.0937 49.9364 42.0898C49.9318 42.0849 49.9273 42.0796 49.9223 42.0747L49.6251 41.7504L43.7372 35.3227C43.0823 34.6078 42.2133 34.1583 41.2623 34.0347C41.2612 34.0347 41.2601 34.0347 41.2591 34.0344C41.2465 34.033 41.2338 34.0312 41.2208 34.0298C41.0594 34.0102 40.8962 34 40.732 34H24.4264C22.5958 34 21.1064 35.4891 21.1064 37.3197V38.9344H19.9717C18.344 38.9344 17.0195 40.2589 17.0195 41.8873V75.4871C17.0195 77.9757 19.0438 80 21.5324 80H42.1579C43.7856 80 45.1101 78.6755 45.1101 77.0478V75.6408H47.6731C49.5037 75.6408 50.9931 74.1514 50.9931 72.3212V44.8279C50.9931 43.8172 50.6214 42.85 49.9462 42.1007ZM48.5438 43.2297H42.4207C42.0656 43.2297 41.7767 42.9409 41.7767 42.5857V36.0513C42.0133 36.1734 42.2291 36.337 42.412 36.5367L48.1167 42.7636L48.5438 43.2297ZM47.6734 73.8439H24.4264C23.5865 73.8439 22.9032 73.1606 22.9032 72.3212V68.1406C22.9032 67.6444 22.5011 67.2422 22.0048 67.2422C21.5089 67.2422 21.1064 67.6444 21.1064 68.1406V72.3212C21.1064 74.1517 22.5958 75.6408 24.4264 75.6408H43.3132V77.0478C43.3132 77.6848 42.7949 78.2031 42.1579 78.2031H21.5324C20.0349 78.2031 18.8164 76.9846 18.8164 75.4871V41.8873C18.8164 41.2496 19.3348 40.7313 19.9717 40.7313H21.1064V60.9531C21.1064 61.4494 21.5089 61.8516 22.0048 61.8516C22.5011 61.8516 22.9032 61.4494 22.9032 60.9531V37.3197C22.9032 36.4802 23.5865 35.7969 24.4264 35.7969H39.9799V42.5857C39.9799 43.9316 41.0748 45.0266 42.4207 45.0266H49.1962V72.3212C49.1962 73.1606 48.5129 73.8439 47.6734 73.8439Z" fill="white"/>
<path d="M27.7158 46.8016H37.3214C37.8173 46.8016 38.2198 46.3994 38.2198 45.9032C38.2198 45.407 37.8173 45.0048 37.3214 45.0048H27.7158C27.2196 45.0048 26.8174 45.407 26.8174 45.9032C26.8174 46.3994 27.2196 46.8016 27.7158 46.8016Z" fill="white"/>
<path d="M41.8013 52.4363H27.7158C27.2196 52.4363 26.8174 52.8385 26.8174 53.3347C26.8174 53.831 27.2196 54.2332 27.7158 54.2332H41.8013C42.2975 54.2332 42.6997 53.831 42.6997 53.3347C42.6997 52.8385 42.2975 52.4363 41.8013 52.4363Z" fill="white"/>
<path d="M41.8013 59.8677H27.7158C27.2196 59.8677 26.8174 60.2699 26.8174 60.7661C26.8174 61.2624 27.2196 61.6646 27.7158 61.6646H41.8013C42.2975 61.6646 42.6997 61.2624 42.6997 60.7661C42.6997 60.2699 42.2975 59.8677 41.8013 59.8677Z" fill="white"/>
<path d="M41.8013 67.2987H27.7158C27.2196 67.2987 26.8174 67.7009 26.8174 68.1971C26.8174 68.6934 27.2196 69.0956 27.7158 69.0956H41.8013C42.2975 69.0956 42.6997 68.6934 42.6997 68.1971C42.6997 67.7009 42.2975 67.2987 41.8013 67.2987Z" fill="white"/>
<path d="M22.0054 63.6495C21.5091 63.6495 21.1069 64.0531 21.1069 64.549C21.1069 65.0453 21.5091 65.4475 22.0054 65.4475C22.5013 65.4475 22.9038 65.0453 22.9038 64.549V64.5469C22.9038 64.0507 22.5013 63.6495 22.0054 63.6495Z" fill="white"/>
<defs>
<linearGradient id="paint0_linear" x1="77.8779" y1="115.22" x2="78.2912" y2="0.999148" gradientUnits="userSpaceOnUse">
<stop stop-color="#54A941"/>
<stop offset="1" stop-color="#6BC058"/>
</linearGradient>
</defs>
</svg>
