<svg width="79" height="112" viewBox="0 0 79 112" fill="none" xmlns="http://www.w3.org/2000/svg">
<path d="M0.198242 111L0.597273 0.718029L47.9931 11.9455C57.4027 14.1745 64.5555 21.8331 66.1375 31.3729L73.7767 77.4388C76.0296 91.0243 66.4131 103.715 52.7246 105.221L0.198242 111Z" fill="url(#paint0_linear)"/>
<path d="M28.9309 57.6374L29.934 56.6351C30.0455 56.6852 30.157 56.7312 30.2692 56.7756V58.1923C30.2692 58.4065 30.3543 58.612 30.5058 58.7634C30.6573 58.9149 30.8627 59 31.0769 59H35.9231C36.1373 59 36.3427 58.9149 36.4942 58.7634C36.6457 58.612 36.7308 58.4065 36.7308 58.1923V56.7756C36.843 56.7312 36.9545 56.6852 37.066 56.6351L38.0691 57.6374C38.2206 57.7888 38.426 57.8739 38.6402 57.8739C38.8543 57.8739 39.0597 57.7888 39.2112 57.6374L42.6374 54.2112C42.7888 54.0597 42.8739 53.8543 42.8739 53.6402C42.8739 53.426 42.7888 53.2206 42.6374 53.0691L41.6351 52.0668C41.6843 51.9545 41.7312 51.843 41.7764 51.7308H43.1923C43.4065 51.7308 43.612 51.6457 43.7634 51.4942C43.9149 51.3427 44 51.1373 44 50.9231V46.0769C44 45.8627 43.9149 45.6573 43.7634 45.5058C43.612 45.3543 43.4065 45.2692 43.1923 45.2692H41.7764C41.7312 45.157 41.6843 45.0455 41.6351 44.9332L42.6374 43.9309C42.7888 43.7794 42.8739 43.574 42.8739 43.3598C42.8739 43.1457 42.7888 42.9403 42.6374 42.7888L39.2112 39.3626C39.0597 39.2112 38.8543 39.1261 38.6402 39.1261C38.426 39.1261 38.2206 39.2112 38.0691 39.3626L37.066 40.3649C36.9545 40.3148 36.843 40.2688 36.7308 40.2244V38.8077C36.7308 38.5935 36.6457 38.388 36.4942 38.2366C36.3427 38.0851 36.1373 38 35.9231 38H31.0769C30.8627 38 30.6573 38.0851 30.5058 38.2366C30.3543 38.388 30.2692 38.5935 30.2692 38.8077V40.2244C30.157 40.2688 30.0455 40.3148 29.934 40.3649L28.9309 39.3626C28.7794 39.2112 28.574 39.1261 28.3598 39.1261C28.1457 39.1261 27.9403 39.2112 27.7888 39.3626L24.3626 42.7888C24.2112 42.9403 24.1261 43.1457 24.1261 43.3598C24.1261 43.574 24.2112 43.7794 24.3626 43.9309L25.3649 44.9332C25.3157 45.0455 25.2688 45.157 25.2236 45.2692H23.8077C23.5935 45.2692 23.388 45.3543 23.2366 45.5058C23.0851 45.6573 23 45.8627 23 46.0769V50.9231C23 51.1373 23.0851 51.3427 23.2366 51.4942C23.388 51.6457 23.5935 51.7308 23.8077 51.7308H25.2236C25.2688 51.843 25.3157 51.9545 25.3649 52.0668L24.3626 53.0691C24.2112 53.2206 24.1261 53.426 24.1261 53.6402C24.1261 53.8543 24.2112 54.0597 24.3626 54.2112L27.7888 57.6374C27.9403 57.7888 28.1457 57.8739 28.3598 57.8739C28.574 57.8739 28.7794 57.7888 28.9309 57.6374V57.6374ZM27.057 51.8584C26.8584 51.4809 26.6935 51.0865 26.5643 50.68C26.5128 50.516 26.4103 50.3728 26.2717 50.2711C26.1331 50.1694 25.9657 50.1146 25.7938 50.1146H24.6154V46.8846H25.7938C25.9657 46.8846 26.1331 46.8298 26.2717 46.7281C26.4103 46.6264 26.5128 46.4832 26.5643 46.3192C26.6935 45.9127 26.8584 45.5183 27.057 45.1408C27.1367 44.9884 27.1656 44.8146 27.1396 44.6446C27.1136 44.4747 27.034 44.3174 26.9125 44.1958L26.0757 43.359L28.3598 41.0749L29.1966 41.9117C29.3182 42.0332 29.4755 42.1128 29.6454 42.1388C29.8154 42.1648 29.9892 42.1359 30.1416 42.0562C30.5191 41.8581 30.9131 41.6932 31.3192 41.5635C31.4832 41.512 31.6264 41.4094 31.7281 41.2709C31.8298 41.1323 31.8846 40.9649 31.8846 40.793V39.6154H35.1154V40.7938C35.1154 40.9657 35.1702 41.1331 35.2719 41.2717C35.3736 41.4103 35.5168 41.5128 35.6808 41.5643C36.0869 41.694 36.4809 41.8589 36.8584 42.057C37.0108 42.1367 37.1846 42.1656 37.3546 42.1396C37.5245 42.1136 37.6818 42.034 37.8034 41.9125L38.6402 41.0757L40.9243 43.3598L40.0875 44.1966C39.966 44.3182 39.8864 44.4755 39.8604 44.6454C39.8344 44.8154 39.8633 44.9892 39.943 45.1416C40.1416 45.5191 40.3065 45.9135 40.4357 46.32C40.4872 46.484 40.5897 46.6272 40.7283 46.7289C40.8669 46.8306 41.0343 46.8854 41.2062 46.8854H42.3846V50.1162H41.2062C41.0343 50.1162 40.8669 50.171 40.7283 50.2727C40.5897 50.3744 40.4872 50.5176 40.4357 50.6816C40.3065 51.0881 40.1416 51.4825 39.943 51.86C39.8633 52.0124 39.8344 52.1862 39.8604 52.3562C39.8864 52.5262 39.966 52.6834 40.0875 52.805L40.9243 53.6418L38.6402 55.9259L37.8034 55.0892C37.6818 54.9676 37.5245 54.888 37.3546 54.862C37.1846 54.836 37.0108 54.865 36.8584 54.9446C36.4809 55.1427 36.0869 55.3076 35.6808 55.4373C35.5168 55.4888 35.3736 55.5914 35.2719 55.7299C35.1702 55.8685 35.1154 56.0359 35.1154 56.2078V57.3846H31.8846V56.2062C31.8846 56.0343 31.8298 55.8669 31.7281 55.7283C31.6264 55.5897 31.4832 55.4872 31.3192 55.4357C30.9131 55.306 30.5191 55.1411 30.1416 54.943C29.9892 54.8633 29.8154 54.8344 29.6454 54.8604C29.4755 54.8864 29.3182 54.966 29.1966 55.0875L28.3598 55.9243L26.0757 53.6402L26.9125 52.8034C27.034 52.6818 27.1136 52.5245 27.1396 52.3546C27.1656 52.1846 27.1367 52.0108 27.057 51.8584V51.8584Z" fill="white"/>
<path d="M33.5 54C34.5878 54 35.6512 53.6481 36.5556 52.9888C37.4601 52.3295 38.1651 51.3925 38.5813 50.2961C38.9976 49.1997 39.1065 47.9933 38.8943 46.8295C38.6821 45.6656 38.1583 44.5965 37.3891 43.7574C36.6199 42.9182 35.6399 42.3468 34.573 42.1153C33.5061 41.8838 32.4002 42.0026 31.3952 42.4567C30.3902 42.9109 29.5313 43.6799 28.9269 44.6666C28.3226 45.6533 28 46.8133 28 48C28.0017 49.5907 28.5817 51.1158 29.6128 52.2406C30.6438 53.3655 32.0418 53.9982 33.5 54ZM33.5 43.7143C34.277 43.7143 35.0365 43.9656 35.6826 44.4366C36.3286 44.9075 36.8322 45.5768 37.1295 46.3599C37.4269 47.143 37.5047 48.0048 37.3531 48.8361C37.2015 49.6675 36.8273 50.4311 36.2779 51.0305C35.7285 51.6298 35.0285 52.038 34.2664 52.2034C33.5044 52.3687 32.7145 52.2839 31.9966 51.9595C31.2787 51.6351 30.6652 51.0858 30.2335 50.381C29.8018 49.6762 29.5714 48.8476 29.5714 48C29.5727 46.8638 29.987 45.7745 30.7235 44.971C31.4599 44.1676 32.4585 43.7156 33.5 43.7143V43.7143Z" fill="white"/>
<path d="M43.8648 56.5075C45.5062 54.509 46.554 52.0773 46.8861 49.4962C47.2181 46.9152 46.8207 44.2914 45.7401 41.9314C44.6595 39.5713 42.9405 37.5723 40.7837 36.1679C38.6269 34.7635 36.1214 34.0117 33.5598 34.0001C30.9982 33.9886 28.4862 34.7179 26.3172 36.1028C24.1483 37.4878 22.4119 39.4712 21.3108 41.8215C20.2097 44.1717 19.7894 46.7918 20.0989 49.3757C20.4085 51.9596 21.4351 54.4007 23.059 56.4139C24.6447 58.3066 25.5285 60.7035 25.5573 63.189V63.2027C25.0944 63.369 24.6933 63.6766 24.409 64.0833C24.1247 64.4901 23.9711 64.9762 23.969 65.4751V70.3167C23.9711 70.8156 24.1247 71.3017 24.409 71.7084C24.6933 72.1152 25.0944 72.4228 25.5573 72.5891V73.5445C25.5573 74.1865 25.8083 74.8023 26.255 75.2563C26.7018 75.7102 27.3078 75.9653 27.9396 75.9653H29.5278C29.5278 77.0354 29.9462 78.0616 30.6908 78.8183C31.4354 79.5749 32.4454 80 33.4984 80C34.5515 80 35.5614 79.5749 36.3061 78.8183C37.0507 78.0616 37.469 77.0354 37.469 75.9653H39.0573C39.6891 75.9653 40.2951 75.7102 40.7418 75.2563C41.1886 74.8023 41.4396 74.1865 41.4396 73.5445V72.5891C41.9025 72.4228 42.3035 72.1152 42.5878 71.7084C42.8721 71.3017 43.0258 70.8156 43.0278 70.3167V65.4751C43.0258 64.9762 42.8721 64.4901 42.5878 64.0833C42.3035 63.6766 41.9025 63.369 41.4396 63.2027V63.185C41.4545 60.7394 42.3127 58.3766 43.8648 56.5075V56.5075ZM24.2867 55.3883C22.4864 53.1584 21.5289 50.3486 21.5867 47.4649C21.6897 44.4133 22.9083 41.5101 25.0045 39.3223C27.1007 37.1345 29.9241 35.819 32.9235 35.6328C35.233 35.5205 37.5247 36.0937 39.5191 37.2824C41.5135 38.471 43.1243 40.2238 44.1551 42.3269C45.1859 44.4299 45.5921 46.7924 45.3241 49.126C45.0561 51.4597 44.1255 53.6636 42.6459 55.469C40.8835 57.5955 39.8965 60.2745 39.8514 63.0542H27.1455C27.0733 60.2439 26.0655 57.5415 24.2867 55.3883V55.3883ZM33.4984 78.3861C32.8666 78.3861 32.2606 78.1311 31.8139 77.6771C31.3671 77.2231 31.1161 76.6073 31.1161 75.9653H35.8808C35.8808 76.6073 35.6298 77.2231 35.183 77.6771C34.7362 78.1311 34.1303 78.3861 33.4984 78.3861ZM39.0573 74.3514H27.9396C27.729 74.3514 27.527 74.2664 27.3781 74.1151C27.2292 73.9637 27.1455 73.7585 27.1455 73.5445V72.7375H39.8514V73.5445C39.8514 73.7585 39.7677 73.9637 39.6188 74.1151C39.4699 74.2664 39.2679 74.3514 39.0573 74.3514ZM41.4396 70.3167C41.4396 70.5307 41.3559 70.736 41.207 70.8873C41.0581 71.0386 40.8561 71.1236 40.6455 71.1236H26.3514C26.1408 71.1236 25.9388 71.0386 25.7899 70.8873C25.6409 70.736 25.5573 70.5307 25.5573 70.3167V65.4751C25.5573 65.261 25.6409 65.0558 25.7899 64.9045C25.9388 64.7531 26.1408 64.6681 26.3514 64.6681H40.6455C40.8561 64.6681 41.0581 64.7531 41.207 64.9045C41.3559 65.0558 41.4396 65.261 41.4396 65.4751V70.3167Z" fill="white"/>
<path d="M40 67H27V69H40V67Z" fill="white"/>
<defs>
<linearGradient id="paint0_linear" x1="77.8779" y1="115.22" x2="78.2912" y2="0.999148" gradientUnits="userSpaceOnUse">
<stop stop-color="#54A941"/>
<stop offset="1" stop-color="#6BC058"/>
</linearGradient>
</defs>
</svg>
