<svg width="79" height="112" viewBox="0 0 79 112" fill="none" xmlns="http://www.w3.org/2000/svg">
<path d="M0.198242 111L0.597273 0.718029L47.9931 11.9455C57.4027 14.1745 64.5555 21.8331 66.1375 31.3729L73.7767 77.4388C76.0296 91.0243 66.4131 103.715 52.7246 105.221L0.198242 111Z" fill="url(#paint0_linear)"/>
<g clip-path="url(#clip0)">
<path d="M24.2036 75.8092L24.1722 75.7927C23.7325 75.5627 23.1896 75.7327 22.9597 76.1725C22.7297 76.6122 22.8998 77.155 23.3395 77.385L23.3708 77.4015C23.5038 77.471 23.6461 77.504 23.7864 77.504C24.1101 77.504 24.4229 77.3285 24.5833 77.0217C24.8133 76.582 24.6433 76.0392 24.2036 75.8092Z" fill="white"/>
<path d="M43.8486 36.21L43.8158 36.1944C43.3671 35.9825 42.8316 36.1745 42.6197 36.6231C42.4078 37.0718 42.5998 37.6073 43.0485 37.8192L43.0724 37.8305C43.1976 37.8904 43.3297 37.9189 43.4599 37.9189C43.7948 37.9189 44.1164 37.7307 44.2707 37.4084C44.4851 36.961 44.2962 36.4244 43.8486 36.21Z" fill="white"/>
<path d="M52.2279 42.9748C52.9537 41.7976 52.8077 40.2313 51.7882 39.2118C50.5972 38.0209 48.6592 38.0209 47.4682 39.2118C46.2772 40.4029 46.2772 42.3408 47.4682 43.5319C48.0637 44.1274 48.8459 44.4251 49.6282 44.4251C50.0532 44.4251 50.4781 44.3364 50.8732 44.1606C53.6704 47.8352 55.2032 52.3631 55.2032 57C55.2032 60.1541 54.5274 63.1889 53.1945 66.0198C52.9831 66.4687 53.1758 67.004 53.6247 67.2153C53.7484 67.2735 53.8786 67.3011 54.0068 67.3011C54.344 67.3011 54.6672 67.1104 54.8203 66.7851C56.2667 63.713 57 60.4208 57 57C57 51.9291 55.3097 46.9785 52.2279 42.9748ZM50.5176 42.2612C50.5137 42.2651 50.5095 42.2682 50.5056 42.272C50.5052 42.2724 50.5047 42.2726 50.5043 42.273C50.494 42.2814 50.4849 42.2908 50.4751 42.2996C49.9823 42.7499 49.2155 42.738 48.7388 42.2612C48.2484 41.7708 48.2484 40.9729 48.7388 40.4824C48.984 40.2372 49.3061 40.1146 49.6282 40.1146C49.9503 40.1146 50.2724 40.2372 50.5176 40.4824C51.008 40.9728 51.008 41.7708 50.5176 42.2612Z" fill="white"/>
<path d="M20.5319 70.4681C19.6127 69.5491 18.249 69.3399 17.1268 69.8393C14.3297 66.1647 12.7969 61.6369 12.7969 56.9999C12.7969 54.071 13.3827 51.2353 14.5382 48.5714C14.7357 48.1162 14.5267 47.5871 14.0715 47.3896C13.6164 47.1924 13.0873 47.4011 12.8897 47.8564C11.6358 50.7473 11 53.8236 11 56.9999C11 62.0708 12.6903 67.0215 15.7721 71.0252C15.0464 72.2023 15.1924 73.7687 16.2118 74.7881C16.8073 75.3836 17.5896 75.6813 18.3719 75.6813C19.1541 75.6813 19.9364 75.3836 20.5319 74.7881C21.7229 73.5971 21.7229 71.6591 20.5319 70.4681ZM19.2612 73.5175C18.7709 74.008 17.9728 74.008 17.4824 73.5175C16.9919 73.0272 16.9919 72.2292 17.4824 71.7387C17.4862 71.735 17.4904 71.7318 17.4943 71.728C17.4947 71.7277 17.4953 71.7273 17.4957 71.727C17.5059 71.7185 17.5151 71.7092 17.5249 71.7004C17.7643 71.4817 18.0677 71.3708 18.3719 71.3708C18.6939 71.3708 19.016 71.4935 19.2612 71.7386C19.7517 72.2291 19.7517 73.0271 19.2612 73.5175Z" fill="white"/>
<path d="M51.7881 70.4682C50.597 69.2772 48.6591 69.2772 47.468 70.4682C46.5489 71.3873 46.3398 72.751 46.8393 73.8732C43.1647 76.6704 38.6368 78.2032 33.9999 78.2032C31.5623 78.2032 29.1727 77.7932 26.8977 76.9846C26.4302 76.8184 25.9165 77.0627 25.7504 77.5302C25.5842 77.9978 25.8284 78.5115 26.296 78.6776C28.7646 79.5551 31.3566 80 33.9999 80C39.0708 80 44.0214 78.3097 48.0251 75.2279C48.5147 75.5297 49.0712 75.6814 49.628 75.6814C50.4103 75.6814 51.1926 75.3837 51.7881 74.7882C52.979 73.5972 52.979 71.6592 51.7881 70.4682ZM50.5175 73.5176C50.0271 74.0081 49.229 74.0081 48.7387 73.5176C48.7348 73.5138 48.7317 73.5096 48.7279 73.5057C48.7275 73.5052 48.7273 73.5048 48.7269 73.5044C48.7185 73.4941 48.7091 73.4849 48.7003 73.4752C48.25 72.9822 48.2619 72.2155 48.7387 71.7388C48.9839 71.4937 49.3059 71.371 49.628 71.371C49.9501 71.371 50.2722 71.4937 50.5174 71.7388C51.0079 72.2292 51.0079 73.0272 50.5175 73.5176Z" fill="white"/>
<path d="M40.7766 35.015C38.5895 34.3415 36.3095 34 34 34C28.9291 34 23.9785 35.6903 19.9748 38.7721C18.7976 38.0464 17.2313 38.1925 16.2118 39.2118C15.0209 40.4029 15.0209 42.3408 16.2118 43.5319C16.8073 44.1274 17.5896 44.4251 18.3719 44.4251C19.1541 44.4251 19.9364 44.1274 20.5319 43.5319C21.451 42.6128 21.66 41.249 21.1606 40.1268C24.8352 37.3297 29.3631 35.7969 34 35.7969C36.13 35.7969 38.2321 36.1116 40.2478 36.7322C40.7218 36.8781 41.2249 36.6123 41.3709 36.138C41.5169 35.6638 41.2508 35.161 40.7766 35.015ZM19.2611 42.2613C18.7708 42.7518 17.9727 42.7518 17.4823 42.2613C16.9919 41.7709 16.9919 40.9729 17.4824 40.4824C17.7276 40.2372 18.0497 40.1146 18.3718 40.1146C18.6939 40.1146 19.0159 40.2372 19.2611 40.4824C19.265 40.4863 19.2681 40.4905 19.2719 40.4944C19.2723 40.4948 19.2725 40.4953 19.2729 40.4957C19.2761 40.4997 19.2799 40.503 19.2832 40.5069C19.7503 40.999 19.7437 41.7788 19.2611 42.2613Z" fill="white"/>
<path d="M51.0657 54.0544C51.0655 53.5584 50.6633 53.1563 50.1673 53.1563H48.3293C47.9945 51.9007 47.4984 50.7024 46.8482 49.5791L48.1478 48.2795C48.4987 47.9287 48.4987 47.3598 48.1478 47.0089L43.9912 42.8523C43.6404 42.5016 43.0715 42.5016 42.7206 42.8523L41.421 44.1519C40.2976 43.5017 39.0994 43.0057 37.8437 42.6708V40.8331C37.8437 40.3371 37.4417 39.9348 36.9457 39.9347L31.0673 39.9325C31.0672 39.9325 31.0671 39.9325 31.0669 39.9325C30.8288 39.9325 30.6003 40.0271 30.4317 40.1956C30.2632 40.364 30.1685 40.5926 30.1685 40.8309V42.6708C28.9128 43.0056 27.7146 43.5017 26.5911 44.1519L25.2867 42.8476C24.9359 42.4967 24.3674 42.4966 24.0164 42.8472L19.8575 47.0016C19.6888 47.17 19.5941 47.3986 19.594 47.637C19.594 47.8753 19.6886 48.104 19.8571 48.2725L21.1637 49.5791C20.5135 50.7025 20.0174 51.9009 19.6826 53.1565H17.8332C17.3372 53.1565 16.935 53.5586 16.9348 54.0546L16.9326 59.933C16.9325 60.1713 17.0271 60.4 17.1957 60.5685C17.3642 60.7371 17.5927 60.8318 17.8311 60.8318H19.6827C20.0176 62.0875 20.5137 63.2858 21.1639 64.4093L19.8524 65.7205C19.5016 66.0714 19.5016 66.6403 19.8524 66.9912L24.0091 71.1478C24.3599 71.4986 24.9288 71.4986 25.2797 71.1478L26.5911 69.8364C27.7145 70.4866 28.9128 70.9827 30.1686 71.3174V73.1691C30.1686 73.4075 30.2633 73.636 30.4318 73.8045C30.6003 73.9729 30.8287 74.0676 31.067 74.0676C31.0671 74.0676 31.0672 74.0676 31.0674 74.0676L36.9458 74.0654C37.4418 74.0652 37.8438 73.663 37.8438 73.167V71.3174C39.0995 70.9826 40.2977 70.4865 41.4212 69.8363L42.7278 71.1429C43.0787 71.4936 43.6476 71.4936 43.9985 71.1429L48.1551 66.9862C48.506 66.6354 48.506 66.0665 48.1551 65.7156L46.8484 64.409C47.4986 63.2855 47.9947 62.0872 48.3295 60.8316H50.1694C50.4078 60.8316 50.6363 60.7369 50.8048 60.5683C50.9732 60.3998 51.0679 60.1711 51.0678 59.9328L51.0657 54.0544ZM47.6219 59.0349C47.1985 59.0349 46.8324 59.3306 46.7435 59.7446C46.4125 61.2849 45.8119 62.7356 44.9582 64.0564C44.7284 64.412 44.7781 64.88 45.0775 65.1794L46.2493 66.3511L43.3632 69.2372L42.1916 68.0654C41.8921 67.766 41.4243 67.7163 41.0685 67.9462C39.7477 68.7998 38.297 69.4005 36.7566 69.7315C36.3426 69.8205 36.047 70.1864 36.047 70.6099V72.269L31.9655 72.2705V70.61C31.9655 70.1866 31.6698 69.8205 31.2558 69.7316C29.7154 69.4006 28.2647 68.8 26.9439 67.9463C26.7943 67.8496 26.625 67.8024 26.4565 67.8024C26.2244 67.8022 25.9943 67.8919 25.8208 68.0654L24.6444 69.2419L21.7583 66.3558L22.9347 65.1794C23.2342 64.88 23.2839 64.412 23.054 64.0564C22.2003 62.7356 21.5996 61.2849 21.2687 59.7445C21.1798 59.3305 20.8139 59.0348 20.3903 59.0348H18.7299L18.7314 54.9533H20.3904C20.8139 54.9533 21.1799 54.6576 21.2688 54.2436C21.5998 52.7032 22.2005 51.2525 23.0541 49.9317C23.284 49.5761 23.2343 49.1081 22.9349 48.8087L21.7635 47.6374L24.6512 44.753L25.8209 45.9227C26.1204 46.2222 26.5883 46.2719 26.9439 46.0421C28.2648 45.1884 29.7155 44.5877 31.2558 44.2568C31.6698 44.1678 31.9655 43.8019 31.9655 43.3784V41.7297L36.047 41.7313V43.3785C36.047 43.802 36.3426 44.168 36.7566 44.2569C38.297 44.5879 39.7477 45.1886 41.0683 46.0422C41.4239 46.2721 41.8919 46.2224 42.1913 45.923L43.3559 44.7584L46.242 47.6444L45.0773 48.8091C44.7779 49.1085 44.7282 49.5764 44.9581 49.932C45.8117 51.2527 46.4124 52.7033 46.7434 54.2437C46.8323 54.6577 47.1983 54.9534 47.6218 54.9534H49.2691L49.2706 59.0349H47.6219V59.0349Z" fill="white"/>
<path d="M41.3572 54.634C41.2055 54.1615 40.6995 53.9013 40.2272 54.053C39.7547 54.2046 39.4946 54.7105 39.6462 55.183C40.3289 57.3111 39.7722 59.6141 38.1933 61.1931C35.8812 63.5051 32.1194 63.505 29.8074 61.1931C27.4955 58.881 27.4955 55.1192 29.8074 52.8072C31.349 51.2657 33.6062 50.6948 35.6979 51.3173C36.1734 51.4588 36.6738 51.188 36.8153 50.7124C36.9568 50.2369 36.6861 49.7366 36.2105 49.595C33.4857 48.784 30.5453 49.528 28.5368 51.5367C25.5242 54.5492 25.5242 59.4511 28.5368 62.4637C30.0431 63.9699 32.0216 64.7229 34.0002 64.7229C35.9789 64.7229 37.9574 63.9698 39.4638 62.4635C41.5211 60.4063 42.2466 57.4061 41.3572 54.634Z" fill="white"/>
<path d="M39.5468 51.6208C39.5195 51.5927 39.492 51.5648 39.4642 51.537C39.1137 51.1859 38.5448 51.1853 38.1936 51.5359C37.8424 51.8865 37.842 52.4553 38.1926 52.8065C38.2143 52.8283 38.2359 52.8501 38.2572 52.8721C38.4333 53.0537 38.6676 53.1449 38.9021 53.1449C39.1274 53.1449 39.3531 53.0607 39.5276 52.8913C39.8837 52.5458 39.8923 51.977 39.5468 51.6208Z" fill="white"/>
</g>
<defs>
<linearGradient id="paint0_linear" x1="77.8779" y1="115.22" x2="78.2912" y2="0.999148" gradientUnits="userSpaceOnUse">
<stop stop-color="#54A941"/>
<stop offset="1" stop-color="#6BC058"/>
</linearGradient>
<clipPath id="clip0">
<rect width="46" height="46" fill="white" transform="translate(11 34)"/>
</clipPath>
</defs>
</svg>
