<svg width="79" height="112" viewBox="0 0 79 112" fill="none" xmlns="http://www.w3.org/2000/svg">
<path d="M0.198242 111L0.597273 0.718029L47.9931 11.9455C57.4027 14.1745 64.5555 21.8331 66.1375 31.3729L73.7767 77.4388C76.0296 91.0243 66.4131 103.715 52.7246 105.221L0.198242 111Z" fill="url(#paint0_linear)"/>
<path d="M48.1953 57.8984C48.6912 57.8984 49.0938 57.4959 49.0938 57C49.0938 56.5041 48.6912 56.1016 48.1953 56.1016C47.6994 56.1016 47.2969 56.5041 47.2969 57C47.2969 57.4959 47.6994 57.8984 48.1953 57.8984Z" fill="white"/>
<path d="M33.9102 68.6796C33.4139 68.6796 33.0117 69.0818 33.0117 69.5781C33.0117 70.0743 33.4139 70.4765 33.9102 70.4765C39.8662 70.4765 45.3186 66.9768 47.8008 61.5609C48.0076 61.11 47.8096 60.5765 47.3583 60.3698C46.9073 60.1634 46.3742 60.3614 46.1672 60.8123C43.9769 65.5916 39.1657 68.6796 33.9102 68.6796V68.6796Z" fill="white"/>
<path d="M56.9975 53.3578C56.9967 53.342 56.9964 53.3258 56.9946 53.3101C56.9946 53.3094 56.9946 53.3087 56.9946 53.3076C56.6184 49.9034 54.127 47.1221 51.0116 45.9411C52.2505 44.9525 53.0468 43.4311 53.0468 41.7266C53.0468 38.7543 50.6287 36.3359 47.6562 36.3359C44.6836 36.3359 42.2656 38.7543 42.2656 41.7266C42.2656 43.4297 43.0605 44.9497 44.2976 45.9383C42.8966 46.4633 41.6296 47.3025 40.6565 48.3711C39.7155 47.3007 38.5441 46.4791 37.242 45.9597C38.4942 44.9718 39.3007 43.442 39.3007 41.7266C39.3007 38.7543 36.8827 36.3359 33.9101 36.3359C30.9376 36.3359 28.5195 38.7543 28.5195 41.7266C28.5195 43.442 29.326 44.9718 30.5785 45.9597C29.2761 46.4791 28.1047 47.3007 27.1641 48.3711C26.1906 47.3025 24.924 46.4633 23.5226 45.9383C24.7598 44.9497 25.5547 43.4297 25.5547 41.7266C25.5547 38.7543 23.1366 36.3359 20.164 36.3359C17.1915 36.3359 14.7734 38.7543 14.7734 41.7266C14.7734 43.4388 15.5768 44.9658 16.8251 45.9541C13.8378 47.1249 11.6429 49.7725 11.1485 52.9121C11.0547 53.0539 11 53.2237 11 53.4062V57.8085C11 58.2304 11.2934 58.5954 11.7054 58.6859L15.6147 59.5458C16.0839 61.4784 16.8461 63.3002 17.8867 64.9753L16.0765 67.9918C15.8645 68.3455 15.9203 68.7979 16.2116 69.0895L20.0237 72.9016C20.3153 73.1932 20.768 73.2487 21.1214 73.0367L24.1859 71.198C25.8621 72.2155 27.6653 72.9553 29.5608 73.4038C29.8187 74.4363 30.3564 76.5876 30.4283 76.8747C30.4318 76.8908 30.4357 76.907 30.4403 76.9231C30.5434 77.305 30.8926 77.5861 31.3075 77.5861C31.3566 77.5861 31.4054 77.5819 31.4524 77.5741H36.6953C37.1076 77.5741 37.467 77.2937 37.5667 76.8936L38.4391 73.4038C40.3346 72.9553 42.1378 72.2155 43.814 71.198L46.8785 73.0367C47.2319 73.249 47.6846 73.1932 47.9762 72.9016L51.7883 69.0895C52.0796 68.7979 52.1354 68.3455 51.9234 67.9921L50.1132 64.9753C51.1541 63.2988 51.9164 61.4774 52.3852 59.5458L56.2945 58.6859C56.7065 58.5954 56.9999 58.2304 56.9999 57.8085V53.4062C56.9999 53.4055 56.9999 53.4045 56.9999 53.4034C56.9996 53.3883 56.9982 53.3732 56.9975 53.3578V53.3578ZM44.0624 41.7266C44.0624 39.7451 45.6747 38.1328 47.6562 38.1328C49.6376 38.1328 51.2499 39.7451 51.2499 41.7266C51.2499 43.708 49.6376 45.3203 47.6562 45.3203C45.6747 45.3203 44.0624 43.708 44.0624 41.7266ZM47.6562 47.1172C51.0681 47.1172 54.1628 49.4577 55.0142 52.5078H42.7137C42.526 51.5879 42.1919 50.6976 41.7286 49.8785C43.0864 48.1865 45.3508 47.1172 47.6562 47.1172V47.1172ZM43.7929 55.2031C43.7929 60.6527 39.3593 65.0859 33.9101 65.0859C28.4609 65.0859 24.0273 60.6527 24.0273 55.2031C24.0273 54.9009 24.0417 54.6012 24.0684 54.3047H43.7518C43.7785 54.6012 43.7929 54.9009 43.7929 55.2031V55.2031ZM30.3164 41.7266C30.3164 39.7451 31.9286 38.1328 33.9101 38.1328C35.8916 38.1328 37.5039 39.7451 37.5039 41.7266C37.5039 43.708 35.8916 45.3203 33.9101 45.3203C31.9286 45.3203 30.3164 43.708 30.3164 41.7266ZM33.9101 47.1172C37.1824 47.1172 40.0468 49.3254 40.8698 52.5078H26.9504C27.773 49.3257 30.6368 47.1172 33.9101 47.1172V47.1172ZM16.5703 41.7266C16.5703 39.7451 18.1826 38.1328 20.164 38.1328C22.1455 38.1328 23.7578 39.7451 23.7578 41.7266C23.7578 43.708 22.1455 45.3203 20.164 45.3203C18.1826 45.3203 16.5703 43.708 16.5703 41.7266ZM20.164 47.1172C22.4694 47.1172 24.7338 48.1865 26.0916 49.8785C25.6284 50.6976 25.2943 51.5879 25.1065 52.5078H13.0678C13.8887 49.4159 16.8258 47.1172 20.164 47.1172ZM55.203 57.0863L51.4426 57.9131C51.0976 57.9889 50.8291 58.2599 50.7561 58.6052C50.3118 60.7137 49.4881 62.6843 48.3075 64.4622C48.1156 64.7511 48.1071 65.1241 48.2854 65.4214L50.0216 68.315L47.2013 71.1349L44.266 69.3735C43.9719 69.1973 43.603 69.2036 43.3149 69.3899C41.5335 70.5446 39.5843 71.344 37.5221 71.7659C37.1834 71.8354 36.9146 72.093 36.8307 72.4281L35.9937 75.7773H32.0058C31.7942 74.9297 31.4419 73.5206 31.2689 72.8282C31.2039 72.6857 31.2032 71.9143 30.4775 71.7659C28.4153 71.344 26.4664 70.5446 24.6846 69.3899C24.3969 69.2036 24.0277 69.1973 23.7339 69.3735L20.7982 71.1349L17.9783 68.315L19.7141 65.4214C19.8924 65.1241 19.884 64.7507 19.692 64.4619C18.5121 62.6861 17.6881 60.7158 17.2434 58.6052C17.1708 58.2599 16.9023 57.9889 16.5573 57.9131L12.7969 57.0863V54.3039H22.2648C22.2424 54.6012 22.2304 54.9009 22.2304 55.2024C22.2304 61.6423 27.4698 66.8827 33.9101 66.8827C40.3504 66.8827 45.5898 61.6434 45.5898 55.2031C45.5898 54.902 45.5778 54.6019 45.5554 54.3047H55.203V57.0863Z" fill="white"/>
<defs>
<linearGradient id="paint0_linear" x1="77.8779" y1="115.22" x2="78.2912" y2="0.999148" gradientUnits="userSpaceOnUse">
<stop stop-color="#54A941"/>
<stop offset="1" stop-color="#6BC058"/>
</linearGradient>
</defs>
</svg>
