<svg width="79" height="112" viewBox="0 0 79 112" fill="none" xmlns="http://www.w3.org/2000/svg">
<path d="M0.198242 111L0.597273 0.718029L47.9931 11.9455C57.4027 14.1745 64.5555 21.8331 66.1375 31.3729L73.7767 77.4388C76.0296 91.0243 66.4131 103.715 52.7246 105.221L0.198242 111Z" fill="url(#paint0_linear)"/>
<g clip-path="url(#clip0)">
<path d="M56.8124 53.6182L49.1132 43.6168C48.8282 43.2469 48.3085 43.1556 47.9144 43.4062L42.9435 46.5676H36.4603C36.3765 46.5676 36.2929 46.5855 36.2122 46.609L31.1855 48.056L25.9697 46.6293L20.9016 43.4062C20.5141 43.1598 20.0038 43.2434 19.7157 43.6006L11.1999 54.1488C10.8938 54.5279 10.9444 55.0813 11.3136 55.3989L15.777 59.2401L19.7813 64.6364C18.6102 65.884 18.633 67.8518 19.8515 69.0706C20.3916 69.6104 21.0785 69.9154 21.7849 69.9863C21.7604 70.1463 21.7477 70.3088 21.7477 70.4737C21.7477 71.3252 22.0794 72.1257 22.6813 72.7276C23.2835 73.3298 24.084 73.6614 24.9354 73.6614C24.947 73.6614 24.9582 73.6607 24.9695 73.6604C24.9691 73.6822 24.9681 73.7036 24.9681 73.7253C24.9681 74.5767 25.2997 75.3772 25.9016 75.9795C26.5038 76.5814 27.3043 76.913 28.1558 76.913C28.3239 76.913 28.4902 76.8993 28.6534 76.8741C28.7225 77.583 29.0282 78.273 29.5701 78.8148C30.1913 79.4364 31.0076 79.747 31.8239 79.747C32.6402 79.747 33.4565 79.4364 34.0781 78.8148L34.5655 78.3274L34.7702 78.4923C35.3864 79.0893 36.1866 79.3876 36.9868 79.3876C37.8031 79.3876 38.6194 79.077 39.2406 78.4555C39.8748 77.8213 40.1853 76.9843 40.1724 76.1515C41.0048 76.1641 41.8422 75.8538 42.4764 75.22C43.1098 74.5862 43.4204 73.7499 43.4081 72.9174C44.2753 72.9311 45.098 72.5981 45.7118 71.9842C46.346 71.3501 46.6566 70.5131 46.6436 69.6802C47.4767 69.6929 48.3134 69.3826 48.9476 68.7485C50.0299 67.6661 50.1692 65.9931 49.3666 64.7581L52.2904 58.6347L56.6861 54.8522C57.0493 54.5395 57.1048 53.9976 56.8124 53.6182V53.6182ZM20.6131 45.3607L24.2574 47.678L16.3297 57.3362L13.1529 54.6019L20.6131 45.3607ZM21.1272 65.838L22.2271 64.7381C22.2605 64.7048 22.2956 64.6732 22.3314 64.6437C22.5465 64.4682 22.8069 64.3637 23.0827 64.3387C23.0905 64.338 23.0985 64.338 23.1063 64.3377C23.1456 64.3345 23.1849 64.3324 23.2245 64.3328C23.6014 64.338 23.9517 64.4921 24.2114 64.7662C24.721 65.3049 24.6936 66.1851 24.1503 66.7284L23.0838 67.7949C22.5444 68.3343 21.6667 68.3343 21.1272 67.7949C20.5878 67.2552 20.5878 66.3774 21.1272 65.838ZM23.957 71.4518C23.6955 71.1907 23.5516 70.8433 23.5516 70.4737C23.5516 70.1042 23.6955 69.7567 23.957 69.4953L26.0897 67.3626C26.4982 66.954 27.1405 66.8421 27.6627 67.0909C28.201 67.3475 28.5039 67.9318 28.4249 68.5196C28.3828 68.8334 28.2368 69.1289 28.0129 69.3532L25.9139 71.4518C25.6524 71.7133 25.305 71.8572 24.9354 71.8572C24.5659 71.8572 24.2184 71.7133 23.957 71.4518ZM27.1773 74.7034C26.9158 74.4423 26.772 74.0949 26.772 73.7253C26.772 73.3558 26.9158 73.0083 27.1773 72.7469L29.3097 70.6141C29.7466 70.1775 30.4475 70.0835 30.9823 70.3948C31.4709 70.6791 31.7267 71.2371 31.6428 71.793C31.5968 72.0987 31.4515 72.3861 31.2329 72.6047L29.1342 74.7034C28.8728 74.9649 28.5253 75.1088 28.1558 75.1088C27.7862 75.1088 27.4388 74.9649 27.1773 74.7034ZM30.8455 77.5391C30.306 76.9997 30.306 76.122 30.8455 75.5826L31.9453 74.4827C31.9787 74.4493 32.0134 74.4181 32.0492 74.3886C32.0503 74.3879 32.051 74.3872 32.0517 74.3865C32.2307 74.2412 32.4409 74.144 32.6651 74.1015C32.6704 74.1008 32.6757 74.1001 32.6809 74.0994C32.7195 74.0924 32.7588 74.0868 32.7982 74.0833C32.8139 74.0819 32.8297 74.0819 32.8459 74.0808C32.8782 74.0791 32.9101 74.077 32.9427 74.0773C33.3193 74.0826 33.6699 74.2363 33.9296 74.5107C33.9616 74.5444 33.9914 74.5795 34.0188 74.6157C34.4336 75.1579 34.3778 75.9633 33.8629 76.4785L32.802 77.5395C32.2626 78.0789 31.3849 78.0785 30.8455 77.5391V77.5391ZM47.6719 67.4728C47.1324 68.0125 46.2547 68.0122 45.7153 67.4728C45.6956 67.4531 45.6749 67.4348 45.6539 67.4177L39.854 61.5567C39.5034 61.2026 38.9324 61.1998 38.5783 61.5504C38.2242 61.9007 38.2214 62.4717 38.5717 62.8258L44.4343 68.7495C44.435 68.7502 44.4357 68.7509 44.4364 68.7516C44.9758 69.291 44.9758 70.1691 44.4364 70.7085C44.175 70.97 43.8275 71.1139 43.458 71.1139C43.0881 71.1139 42.7406 70.97 42.4795 70.7085L38.5576 66.7459C38.2074 66.3918 37.6364 66.389 37.2823 66.7393C36.9282 67.0899 36.9254 67.6609 37.2756 68.015L41.1375 71.9169C41.1571 71.9414 41.1782 71.9649 41.2007 71.9874C41.7401 72.5268 41.7401 73.4049 41.2007 73.9443C40.6609 74.4837 39.7828 74.4834 39.2434 73.944L37.1029 71.781C36.7523 71.4269 36.1813 71.4238 35.8272 71.7744C35.4731 72.1246 35.4703 72.6956 35.8206 73.0497L37.9013 75.1519C37.921 75.1765 37.9421 75.2004 37.9649 75.2228C38.5043 75.7622 38.5043 76.6403 37.9649 77.1797C37.4255 77.7195 36.5477 77.7192 36.0083 77.1797C35.9462 77.1176 35.8732 77.0699 35.8037 77.0165C35.7447 76.9716 35.7293 76.9404 35.7588 76.8688C35.7886 76.7961 35.8332 76.7305 35.863 76.6575C35.896 76.5761 35.9227 76.4922 35.9487 76.408C36.0869 75.9623 36.1276 75.4829 36.0655 75.0203C35.9462 74.1328 35.458 73.3319 34.7182 72.8251C34.3185 72.5517 33.8559 72.3724 33.3765 72.305C33.6089 71.2802 33.3298 70.1691 32.6041 69.4023C32.0068 68.7713 31.1999 68.4172 30.332 68.4052C30.3004 68.4049 30.2688 68.4049 30.2369 68.4052C30.2562 67.577 29.9551 66.754 29.3841 66.1507C28.7864 65.5197 27.9796 65.1656 27.112 65.1537C26.8541 65.1501 26.5937 65.1775 26.3424 65.2354C26.235 64.4883 25.8584 63.7969 25.2881 63.3024C24.7213 62.8118 24.0086 62.5394 23.2494 62.5289C22.4503 62.5173 21.6652 62.8121 21.0718 63.348L17.5851 58.6498L25.9265 48.4876L28.585 49.2148L25.113 55.3414C24.6933 56.0822 24.5873 56.9421 24.8143 57.7626C25.0414 58.5835 25.5742 59.2664 26.315 59.6862C26.3613 59.7125 26.408 59.7374 26.4554 59.7613C26.4589 59.763 26.4624 59.7648 26.4663 59.7665C26.5909 59.8287 26.719 59.882 26.8488 59.9269C27.4535 60.1364 28.1066 60.1593 28.7366 59.9852C29.5571 59.7581 30.2401 59.225 30.6598 58.4845L32.9161 54.503L36.9447 54.7886L47.6722 65.5158C48.2113 66.0556 48.2113 66.9333 47.6719 67.4728V67.4728ZM48.0456 63.3382L37.9821 53.275C37.9631 53.2557 37.9431 53.2374 37.9224 53.2202C37.7775 53.0995 37.5978 53.0265 37.4083 53.0132L32.4756 52.6633C32.1345 52.6398 31.7955 52.8212 31.627 53.1185L29.0903 57.5952C28.9082 57.9167 28.6116 58.148 28.2554 58.2466C27.8996 58.3452 27.5261 58.2989 27.2043 58.1167C26.8829 57.9346 26.6516 57.638 26.553 57.2818C26.4543 56.9256 26.5003 56.5522 26.6828 56.2307L30.0691 50.2543L31.4414 49.8595C31.4505 49.8567 31.4593 49.8532 31.4684 49.8504L36.5898 48.3715H42.7778L50.503 58.1918L48.0456 63.3382ZM51.6846 56.7761L44.5407 47.6896L48.1867 45.3708L54.8622 54.0418L51.6846 56.7761Z" fill="white"/>
<path d="M38.8678 44.8739C39.0987 44.8739 39.3296 44.7858 39.5058 44.6096L45.6671 38.4483C46.0195 38.0959 46.0195 37.5249 45.6671 37.1726C45.3148 36.8202 44.7438 36.8202 44.3914 37.1726L38.2301 43.3339C37.8777 43.6863 37.8777 44.2573 38.2301 44.6096C38.4063 44.7858 38.6372 44.8739 38.8678 44.8739Z" fill="white"/>
<path d="M28.4939 44.6096C28.6701 44.7858 28.901 44.8739 29.132 44.8739C29.3625 44.8739 29.5935 44.7858 29.7696 44.6096C30.122 44.2573 30.122 43.6863 29.7696 43.3339L23.6083 37.1726C23.256 36.8202 22.685 36.8202 22.3326 37.1726C21.9803 37.5249 21.9803 38.0959 22.3326 38.4483L28.4939 44.6096Z" fill="white"/>
<path d="M34.0001 44.8739C34.4981 44.8739 34.902 44.47 34.902 43.972V38.873C34.902 38.375 34.4981 37.9711 34.0001 37.9711C33.5021 37.9711 33.0981 38.375 33.0981 38.873V43.972C33.0981 44.47 33.5021 44.8739 34.0001 44.8739Z" fill="white"/>
<path d="M33.1675 35.6038C33.3107 35.9509 33.6677 36.1787 34.0442 36.1591C34.4162 36.1397 34.743 35.8885 34.8581 35.5344C34.9735 35.1774 34.8479 34.7707 34.5489 34.5433C34.2439 34.3109 33.8186 34.298 33.4995 34.5089C33.1437 34.744 33.0058 35.2122 33.1675 35.6038Z" fill="white"/>
</g>
<defs>
<linearGradient id="paint0_linear" x1="77.8779" y1="115.22" x2="78.2912" y2="0.999148" gradientUnits="userSpaceOnUse">
<stop stop-color="#54A941"/>
<stop offset="1" stop-color="#6BC058"/>
</linearGradient>
<clipPath id="clip0">
<rect width="46" height="46" fill="white" transform="translate(11 34)"/>
</clipPath>
</defs>
</svg>
