<svg width="564" height="424" viewBox="0 0 564 424" fill="none" xmlns="http://www.w3.org/2000/svg">
<path d="M252.811 265.289C241.327 258.578 241.167 247.712 252.651 241.161C264.136 234.45 282.797 234.45 294.281 241.161C305.766 247.872 305.925 258.738 294.441 265.289C282.957 271.84 264.295 271.84 252.811 265.289ZM295.079 240.522C283.116 233.491 263.498 233.491 251.694 240.522C239.732 247.553 239.732 258.738 251.854 265.769C263.817 272.799 283.435 272.799 295.398 265.769C307.201 258.738 307.201 247.393 295.079 240.522Z" fill="url(#paint0_linear)"/>
<g opacity="0.6">
<g opacity="0.6">
<g opacity="0.6">
<path opacity="0.6" d="M338.783 215.116C375.149 236.048 375.309 270.243 339.261 291.175C303.214 312.107 244.357 312.107 208.15 291.175C171.784 270.243 171.624 236.048 207.672 215.116C243.719 194.024 302.576 194.024 338.783 215.116ZM205.279 292.773C243.081 314.664 304.49 314.664 342.132 292.773C379.775 270.882 379.615 235.249 341.654 213.358C303.852 191.467 242.443 191.467 204.801 213.358C167.158 235.249 167.477 270.882 205.279 292.773Z" fill="url(#paint1_linear)"/>
</g>
</g>
</g>
<g opacity="0.4">
<g opacity="0.4">
<g opacity="0.4">
<path opacity="0.4" d="M388.228 186.354C452.029 223.265 452.348 283.185 389.026 320.096C325.704 357.007 222.346 357.007 158.545 320.096C94.9038 283.185 94.5848 223.105 157.907 186.354C221.23 149.443 324.587 149.443 388.228 186.354ZM153.601 322.813C220.113 361.322 327.937 361.322 393.971 322.813C460.004 284.304 459.685 221.827 393.173 183.318C326.661 144.809 218.837 144.809 152.803 183.318C86.7692 221.827 87.2477 284.464 153.601 322.813Z" fill="url(#paint2_linear)"/>
</g>
</g>
</g>
<g opacity="0.1">
<g opacity="0.1">
<g opacity="0.1">
<path opacity="0.1" d="M445.968 152.798C541.67 208.245 542.148 298.205 447.085 353.652C352.021 408.938 196.666 409.098 100.965 353.652C5.26348 298.205 4.78497 208.085 99.8483 152.798C194.912 97.352 350.267 97.352 445.968 152.798ZM93.4682 357.966C193.317 415.809 355.371 415.809 454.581 357.966C553.951 300.123 553.313 206.168 453.465 148.324C353.616 90.4811 191.562 90.4811 92.3517 148.324C-6.85869 206.168 -6.38018 300.123 93.4682 357.966Z" fill="url(#paint3_linear)"/>
</g>
</g>
</g>
<path d="M234.149 162.066H217.561L125.05 108.218C121.062 105.821 115.958 105.821 111.971 108.218L16.7477 160.948H0V175.489C0 178.365 1.43552 181.241 4.30656 182.999L111.333 244.677C115.32 247.074 120.424 247.074 124.412 244.677L230.002 184.117C232.873 182.519 234.309 179.643 234.309 176.607V162.066H234.149Z" fill="url(#paint4_linear)"/>
<path d="M111.173 230.136L4.30656 168.458C-1.43552 165.102 -1.43552 156.953 4.30656 153.597L111.971 93.677C115.958 91.2802 121.062 91.2802 125.05 93.677L230.002 154.716C235.744 158.072 235.744 166.221 230.002 169.576L124.412 230.136C120.265 232.533 115.32 232.533 111.173 230.136Z" fill="url(#paint5_linear)"/>
<path d="M112.29 218.631L23.2875 167.339C18.5025 164.623 18.5025 157.752 23.2875 155.036L112.768 105.182C116.118 103.264 120.265 103.264 123.614 105.182L210.862 155.835C215.647 158.551 215.647 165.422 210.862 168.138L123.136 218.471C119.786 220.549 115.639 220.549 112.29 218.631Z" fill="url(#paint6_linear)"/>
<path d="M23.2872 162.865L112.768 113.011C116.118 111.094 120.265 111.094 123.614 113.011L210.862 163.664C211.819 164.303 212.616 164.942 213.095 165.901C215.328 162.705 214.53 157.912 210.862 155.835L123.614 105.182C120.265 103.264 116.118 103.264 112.768 105.182L23.2872 155.036C19.4592 157.273 18.8212 161.906 20.8947 165.102C21.5327 164.303 22.3302 163.504 23.2872 162.865Z" fill="url(#paint7_linear)"/>
<path d="M229.843 167.02L124.252 227.579C120.265 229.976 115.161 229.976 111.173 227.579L4.30664 165.901C1.91411 164.463 0.478587 162.226 0.159582 159.829C-0.318925 163.185 0.957094 166.7 4.30664 168.458L111.333 230.136C115.32 232.533 120.424 232.533 124.412 230.136L230.002 169.576C233.352 167.659 234.628 164.144 234.149 160.788C233.671 163.185 232.395 165.582 229.843 167.02Z" fill="white"/>
<path opacity="0.8" d="M112.609 203.931L29.3486 155.994C24.8825 153.438 24.8825 147.046 29.3486 144.49L113.087 97.8314C116.277 96.0738 120.105 96.0738 123.295 97.8314L204.961 145.288C209.427 147.845 209.427 154.237 204.961 156.793L122.817 203.931C119.627 205.848 115.639 205.848 112.609 203.931Z" fill="white" fill-opacity="0.6"/>
<path opacity="0.6" d="M113.565 182.998L49.7646 146.247C46.4151 144.33 46.4151 139.376 49.7646 137.459L114.044 101.666C116.437 100.228 119.467 100.228 121.86 101.666L184.384 137.938C187.734 139.856 187.734 144.809 184.384 146.726L121.381 182.839C118.989 184.436 115.958 184.436 113.565 182.998Z" fill="#57CC3C"/>
<path d="M87.8857 82.0125V121.8" stroke="#68F149" stroke-width="0.75" stroke-miterlimit="10" stroke-linecap="round" stroke-linejoin="round"/>
<path d="M87.8855 86.4865C90.352 86.4865 92.3516 84.4833 92.3516 82.0124C92.3516 79.5414 90.352 77.5383 87.8855 77.5383C85.419 77.5383 83.4194 79.5414 83.4194 82.0124C83.4194 84.4833 85.419 86.4865 87.8855 86.4865Z" fill="url(#paint8_linear)"/>
<path d="M77.8369 74.3426C83.4195 68.75 92.3516 68.75 97.7747 74.3426" stroke="white" stroke-width="0.75" stroke-miterlimit="10" stroke-linecap="round" stroke-linejoin="round"/>
<path d="M73.3711 69.7088C81.3462 61.7194 94.4254 61.7194 102.56 69.7088" stroke="white" stroke-width="0.75" stroke-miterlimit="10" stroke-linecap="round" stroke-linejoin="round"/>
<path d="M68.5859 64.9151C79.2726 54.2093 96.6583 54.2093 107.345 64.9151" stroke="white" stroke-width="0.75" stroke-miterlimit="10" stroke-linecap="round" stroke-linejoin="round"/>
<path d="M162.373 122.279H148.177L118.829 104.383C115.32 102.305 111.173 102.305 107.664 104.383L92.0326 112.851H77.8369V120.841C77.8369 123.238 79.1129 125.794 81.5055 127.232L123.136 151.999C126.645 154.077 130.792 154.077 134.301 151.999L158.705 136.82C161.097 135.382 162.373 132.985 162.373 130.428V122.279Z" fill="url(#paint9_linear)"/>
<path d="M123.136 143.691L81.5063 119.083C76.7212 116.207 76.7212 109.176 81.5063 106.46L107.665 91.9193C111.174 90.0018 115.321 90.0018 118.83 91.9193L158.705 116.047C163.49 118.923 163.49 125.954 158.705 128.671L134.302 143.691C130.952 145.768 126.645 145.768 123.136 143.691Z" fill="url(#paint10_linear)"/>
<path d="M158.704 126.434L134.301 141.613C130.792 143.531 126.644 143.531 123.135 141.613L81.5053 116.846C79.4318 115.568 78.3153 113.65 77.9963 111.573C77.5178 114.449 78.6343 117.326 81.5053 118.924L123.135 143.691C126.644 145.768 130.792 145.768 134.301 143.691L158.704 128.671C161.575 127.073 162.692 124.037 162.213 121.32C161.894 123.398 160.778 125.315 158.704 126.434Z" fill="white"/>
<path d="M108.78 114.929L119.626 108.697C119.945 108.537 120.424 108.537 120.743 108.697L131.589 114.929C131.908 115.089 131.908 115.728 131.589 115.887L120.743 122.119C120.424 122.279 119.945 122.279 119.626 122.119L108.78 115.887C108.461 115.568 108.461 115.089 108.78 114.929Z" fill="url(#paint11_linear)"/>
<path d="M109.578 116.207L119.626 110.455C119.945 110.295 120.424 110.295 120.743 110.455L130.792 116.207L131.589 115.728C131.908 115.568 131.908 114.929 131.589 114.769L120.743 108.537C120.424 108.378 119.945 108.378 119.626 108.537L108.78 114.769C108.461 114.929 108.461 115.568 108.78 115.728L109.578 116.207Z" fill="white"/>
<path d="M139.086 143.85C138.926 143.85 138.767 143.691 138.607 143.531C138.448 143.211 138.607 142.892 138.767 142.732L153.6 134.423C153.919 134.263 154.238 134.423 154.398 134.583C154.557 134.902 154.398 135.222 154.238 135.382L139.405 143.691C139.405 143.85 139.245 143.85 139.086 143.85Z" fill="url(#paint12_linear)"/>
<path d="M139.086 146.407C138.926 146.407 138.767 146.247 138.607 146.087C138.448 145.768 138.607 145.448 138.767 145.288L153.6 136.98C153.919 136.82 154.238 136.98 154.398 137.139C154.557 137.459 154.398 137.778 154.238 137.938L139.405 146.247C139.405 146.407 139.245 146.407 139.086 146.407Z" fill="url(#paint13_linear)"/>
<path d="M86.2905 125.475C86.6095 126.274 86.2905 126.913 85.812 126.913C85.3335 126.913 84.6955 126.433 84.3765 125.794C84.0575 124.995 84.3765 124.356 84.855 124.356C85.3335 124.196 85.9715 124.836 86.2905 125.475ZM89.321 126.753C88.8425 126.753 88.5235 127.552 88.8425 128.191C89.1615 128.99 89.64 129.469 90.278 129.31C90.7565 129.31 91.0756 128.511 90.7566 127.871C90.4375 127.232 89.7995 126.593 89.321 126.753ZM93.6276 129.15C93.1491 129.15 92.8301 129.949 93.1491 130.588C93.4681 131.387 93.9466 131.866 94.5846 131.706C95.0631 131.706 95.3821 130.907 95.0631 130.268C94.7441 129.469 94.1061 128.99 93.6276 129.15Z" fill="url(#paint14_linear)"/>
<path d="M553.952 152.958H537.363L444.852 99.1096C440.864 96.7128 435.76 96.7128 431.773 99.1096L336.55 151.84H319.802V166.38C319.802 169.257 321.238 172.133 324.109 173.89L431.135 235.569C435.122 237.965 440.226 237.965 444.214 235.569L549.805 175.009C552.676 173.411 554.111 170.535 554.111 167.499V152.958H553.952Z" fill="url(#paint15_linear)"/>
<path d="M431.135 220.868L324.109 159.19C318.367 155.834 318.367 147.685 324.109 144.33L431.773 84.4092C435.76 82.0124 440.864 82.0124 444.852 84.4092L549.805 145.448C555.547 148.804 555.547 156.953 549.805 160.308L444.214 220.868C440.067 223.265 435.122 223.265 431.135 220.868Z" fill="url(#paint16_linear)"/>
<path d="M432.092 209.363L343.09 158.071C338.305 155.355 338.305 148.484 343.09 145.768L432.571 95.9139C435.92 93.9965 440.067 93.9965 443.417 95.9139L530.664 146.567C535.45 149.283 535.45 156.154 530.664 158.87L442.938 209.204C439.589 211.441 435.442 211.441 432.092 209.363Z" fill="url(#paint17_linear)"/>
<path d="M343.089 153.757L432.57 103.903C435.92 101.986 440.067 101.986 443.416 103.903L530.664 154.556C531.621 155.195 532.419 155.835 532.897 156.793C535.13 153.597 534.333 148.804 530.664 146.727L443.416 96.0738C440.067 94.1564 435.92 94.1564 432.57 96.0738L343.089 145.928C339.261 148.165 338.623 152.799 340.697 155.994C341.335 155.195 342.132 154.396 343.089 153.757Z" fill="url(#paint18_linear)"/>
<path d="M549.805 157.752L444.214 218.311C440.227 220.708 435.122 220.708 431.135 218.311L324.109 156.633C321.716 155.195 320.281 152.958 319.962 150.561C319.483 153.917 320.759 157.432 324.109 159.19L431.135 220.868C435.122 223.265 440.227 223.265 444.214 220.868L549.805 160.308C553.154 158.391 554.43 154.876 553.952 151.52C553.473 154.077 552.197 156.314 549.805 157.752Z" fill="white"/>
<path opacity="0.8" d="M432.411 194.823L349.151 146.886C344.685 144.33 344.685 137.938 349.151 135.382L432.89 88.7235C436.08 86.9659 439.908 86.9659 443.098 88.7235L524.763 136.021C529.229 138.577 529.229 144.969 524.763 147.525L442.619 194.663C439.429 196.58 435.442 196.58 432.411 194.823Z" fill="white" fill-opacity="0.6"/>
<path opacity="0.6" d="M433.368 173.731L369.567 136.979C366.217 135.062 366.217 130.108 369.567 128.191L433.846 92.5583C436.239 91.1202 439.269 91.1202 441.662 92.5583L504.187 128.83C507.536 130.748 507.536 135.701 504.187 137.619L441.183 173.731C438.791 175.169 435.92 175.169 433.368 173.731Z" fill="#57CC3C"/>
<path d="M398.916 112.532H413.111L442.46 94.4759C445.969 92.3987 450.116 92.3987 453.625 94.4759L469.256 102.945H483.452V111.094C483.452 113.491 482.176 116.047 479.783 117.485L438.153 142.253C434.644 144.33 430.497 144.33 426.988 142.253L402.584 127.232C400.192 125.794 398.916 123.398 398.916 120.841V112.532Z" fill="url(#paint19_linear)"/>
<path d="M437.993 133.943L479.623 109.176C484.408 106.3 484.408 99.2694 479.623 96.553L453.465 82.0123C449.956 80.0949 445.809 80.0949 442.3 82.0123L402.424 106.14C397.639 109.016 397.639 116.047 402.424 118.764L426.828 133.784C430.337 135.861 434.644 135.861 437.993 133.943Z" fill="url(#paint20_linear)"/>
<path d="M402.584 116.686L426.988 131.706C430.497 133.624 434.644 133.624 438.153 131.706L479.783 106.939C481.856 105.661 482.973 103.744 483.292 101.666C483.771 104.542 482.654 107.419 479.783 109.017L438.153 133.784C434.644 135.861 430.497 135.861 426.988 133.784L402.584 118.764C399.713 117.166 398.596 114.13 399.075 111.413C399.234 113.491 400.51 115.408 402.584 116.686Z" fill="white"/>
<path d="M453.784 103.424L439.11 94.955C438.631 94.6354 438.153 94.6354 437.674 94.955L423 103.424C422.521 103.743 422.521 104.383 423 104.702L437.674 113.171C438.153 113.49 438.631 113.49 439.11 113.171L453.784 104.702C454.262 104.383 454.262 103.743 453.784 103.424Z" fill="url(#paint21_linear)"/>
<path d="M437.993 104.862C439.11 104.223 440.545 103.903 442.14 103.903L442.619 104.223L442.14 104.542C440.864 104.542 439.588 104.862 438.791 105.341C437.993 105.821 437.355 106.46 437.355 107.259L437.196 107.418L436.877 107.578L436.398 107.259C436.239 106.3 436.877 105.341 437.993 104.862Z" fill="white"/>
<path d="M436.239 103.743C437.674 102.944 439.748 102.305 442.14 102.305L442.619 102.625L442.14 102.944C440.226 102.944 438.312 103.424 437.036 104.223C435.76 105.022 434.963 105.98 434.963 107.259L434.803 107.418L434.484 107.578L434.006 107.259C433.846 105.821 434.803 104.702 436.239 103.743Z" fill="white"/>
<path d="M434.484 102.785C436.558 101.666 439.269 100.867 442.14 101.027L442.619 101.347L442.14 101.666C439.588 101.666 437.036 102.305 435.282 103.264C433.368 104.383 432.411 105.821 432.411 107.259L432.251 107.418L431.932 107.578L431.454 107.259C431.294 105.501 432.411 103.903 434.484 102.785Z" fill="white"/>
<path d="M440.226 106.14C440.864 105.82 441.981 105.82 442.619 106.14C443.257 106.46 443.257 107.099 442.619 107.578C441.981 107.898 440.864 107.898 440.226 107.578C439.588 107.099 439.588 106.46 440.226 106.14Z" fill="white"/>
<path d="M453.465 104.862L439.11 96.5529C438.631 96.2333 438.153 96.2333 437.674 96.5529L423.319 104.862L423 104.702C422.521 104.383 422.521 103.743 423 103.424L437.674 94.955C438.153 94.6354 438.631 94.6354 439.11 94.955L453.784 103.424C454.262 103.743 454.262 104.383 453.784 104.702L453.465 104.862Z" fill="white"/>
<path d="M460.962 123.078C460.802 123.078 460.643 122.918 460.483 122.758C460.324 122.439 460.483 122.119 460.643 121.959L475.476 113.65C475.795 113.491 476.114 113.65 476.274 113.81C476.433 114.13 476.274 114.449 476.114 114.609L461.281 122.918C461.281 123.078 461.121 123.078 460.962 123.078Z" fill="url(#paint22_linear)"/>
<path d="M460.962 125.635C460.802 125.635 460.643 125.475 460.483 125.315C460.324 124.995 460.483 124.676 460.643 124.516L475.476 116.207C475.795 116.047 476.114 116.207 476.274 116.367C476.433 116.686 476.274 117.006 476.114 117.166L461.281 125.475C461.281 125.635 461.121 125.635 460.962 125.635Z" fill="url(#paint23_linear)"/>
<path d="M460.005 106.3C460.802 105.821 461.919 105.821 462.716 106.3C463.514 106.78 463.514 107.419 462.716 107.898C461.919 108.377 460.802 108.377 460.005 107.898C459.207 107.419 459.207 106.78 460.005 106.3Z" fill="url(#paint24_linear)"/>
<path d="M455.22 109.176C456.017 108.697 457.134 108.697 457.931 109.176C458.729 109.656 458.729 110.295 457.931 110.774C457.134 111.254 456.017 111.254 455.22 110.774C454.422 110.295 454.422 109.496 455.22 109.176Z" fill="url(#paint25_linear)"/>
<path d="M450.275 111.893C451.073 111.413 452.189 111.413 452.987 111.893C453.784 112.372 453.784 113.011 452.987 113.491C452.189 113.97 451.073 113.97 450.275 113.491C449.637 113.011 449.637 112.372 450.275 111.893Z" fill="url(#paint26_linear)"/>
<path d="M445.49 114.769C446.288 114.29 447.404 114.29 448.202 114.769C448.999 115.248 448.999 115.887 448.202 116.367C447.404 116.846 446.288 116.846 445.49 116.367C444.693 115.887 444.852 115.089 445.49 114.769Z" fill="url(#paint27_linear)"/>
<path d="M440.705 117.485C441.503 117.006 442.619 117.006 443.417 117.485C444.214 117.965 444.214 118.604 443.417 119.083C442.619 119.562 441.503 119.562 440.705 119.083C439.908 118.604 439.908 117.965 440.705 117.485Z" fill="url(#paint28_linear)"/>
<path d="M455.22 109.176C456.018 108.697 457.134 108.697 457.932 109.176C458.41 109.496 458.57 109.975 458.41 110.295C458.251 110.135 458.251 109.975 457.932 109.816C457.134 109.336 456.018 109.336 455.22 109.816C454.901 109.975 454.901 110.135 454.742 110.295C454.423 109.816 454.582 109.496 455.22 109.176Z" fill="white"/>
<path d="M443.417 118.124C442.619 117.645 441.503 117.645 440.705 118.124C440.546 118.284 440.386 118.444 440.227 118.604C440.067 118.284 440.227 117.805 440.705 117.485C441.503 117.006 442.619 117.006 443.417 117.485C443.895 117.805 444.055 118.284 443.895 118.604C443.736 118.444 443.576 118.284 443.417 118.124Z" fill="white"/>
<path d="M460.005 106.3C460.803 105.821 461.919 105.821 462.717 106.3C463.195 106.62 463.355 107.099 463.195 107.419C463.036 107.259 463.036 107.099 462.717 106.939C461.919 106.46 460.803 106.46 460.005 106.939C459.846 107.099 459.686 107.259 459.527 107.419C459.367 107.099 459.367 106.62 460.005 106.3Z" fill="white"/>
<path d="M450.275 111.893C451.073 111.413 452.189 111.413 452.987 111.893C453.465 112.212 453.625 112.692 453.465 113.011C453.306 112.851 453.306 112.692 452.987 112.532C452.189 112.053 451.073 112.053 450.275 112.532C450.116 112.692 449.956 112.851 449.797 113.011C449.637 112.692 449.797 112.212 450.275 111.893Z" fill="white"/>
<path d="M445.49 114.769C446.288 114.29 447.404 114.29 448.202 114.769C448.68 115.089 448.84 115.568 448.68 115.887C448.521 115.728 448.521 115.568 448.202 115.408C447.404 114.929 446.288 114.929 445.49 115.408C445.171 115.568 445.171 115.728 445.012 115.887C444.852 115.408 445.012 114.929 445.49 114.769Z" fill="white"/>
<path d="M447.883 133.145C447.404 133.145 446.926 132.985 446.766 132.505C446.447 131.866 446.926 131.067 447.564 130.588L453.625 127.073C454.263 126.593 455.06 126.913 455.379 127.552C455.698 128.191 455.22 128.99 454.582 129.469L448.521 132.985C448.361 132.985 448.042 133.145 447.883 133.145Z" fill="#57CC3C"/>
<path d="M447.244 132.505C447.404 132.505 447.723 132.346 447.882 132.346L453.943 128.83C454.581 128.511 455.06 127.552 454.741 126.913C455.06 127.073 455.219 127.232 455.379 127.392C455.698 128.031 455.219 128.83 454.581 129.31L448.52 132.825C448.361 132.985 448.042 132.985 447.882 132.985C447.404 132.985 446.925 132.825 446.766 132.346C446.925 132.505 447.085 132.505 447.244 132.505Z" fill="white"/>
<path d="M392.216 246.594H375.468L282.319 192.426C278.172 190.029 273.227 190.029 269.08 192.426L173.219 245.475H156.472V260.176C156.472 263.052 157.907 265.928 160.778 267.686L268.442 329.684C272.589 332.08 277.534 332.08 281.681 329.684L387.909 268.645C390.78 267.047 392.216 264.011 392.216 261.135V246.594Z" fill="url(#paint29_linear)"/>
<path d="M268.443 315.143L160.779 253.145C155.037 249.79 155.037 241.481 160.779 238.125L269.081 177.725C273.228 175.329 278.173 175.329 282.32 177.725L387.91 239.084C393.652 242.439 393.652 250.748 387.91 254.104L281.682 315.143C277.535 317.38 272.431 317.38 268.443 315.143Z" fill="url(#paint30_linear)"/>
<path d="M269.399 303.478L179.918 251.867C175.133 249.151 175.133 242.12 179.918 239.403L270.037 189.23C273.387 187.313 277.534 187.313 281.043 189.23L368.929 240.202C373.714 242.919 373.714 249.95 368.929 252.666L280.564 303.478C276.896 305.396 272.749 305.396 269.399 303.478Z" fill="url(#paint31_linear)"/>
<path d="M269.399 303.478L179.918 251.867C175.133 249.151 175.133 242.12 179.918 239.403L270.037 189.23C273.387 187.313 277.534 187.313 281.043 189.23L368.929 240.202C373.714 242.919 373.714 249.95 368.929 252.666L280.564 303.478C276.896 305.396 272.749 305.396 269.399 303.478Z" fill="#113822" fill-opacity="0.4" style="mix-blend-mode:color"/>
<path d="M179.919 247.393L270.037 197.219C273.387 195.302 277.534 195.302 281.043 197.219L368.929 248.192C369.886 248.831 370.683 249.63 371.321 250.429C373.554 247.233 372.757 242.439 368.929 240.202L281.043 189.23C277.693 187.313 273.546 187.313 270.037 189.23L179.919 239.403C176.091 241.641 175.453 246.274 177.526 249.63C178.164 248.831 178.802 248.032 179.919 247.393Z" fill="url(#paint32_linear)"/>
<path d="M387.909 251.547L281.521 312.586C277.374 314.983 272.43 314.983 268.283 312.586L160.619 250.589C158.226 249.151 156.791 246.914 156.472 244.357C155.993 247.712 157.269 251.228 160.619 253.145L268.283 315.143C272.43 317.54 277.374 317.54 281.521 315.143L387.75 254.104C391.099 252.187 392.375 248.671 391.897 245.316C391.578 247.712 390.302 250.109 387.909 251.547Z" fill="white"/>
<path opacity="0.5" d="M392.694 75.6209C393.332 74.1828 393.492 72.5849 393.173 70.987V70.3479H393.013C392.535 68.1109 391.099 66.1934 388.866 64.9151L282.319 2.75758C278.172 0.360756 273.068 0.360756 269.08 2.75758L159.662 63.6368C157.11 65.0749 155.674 67.6315 155.355 70.1881V70.3479C155.196 71.6262 155.355 72.7447 155.674 74.023L173.857 242.759C173.379 245.635 174.495 248.831 177.366 250.429L269.08 303.319C272.589 305.396 276.896 305.396 280.245 303.319L370.843 251.388C373.873 249.63 374.99 246.274 374.352 243.398L392.694 75.6209Z" fill="url(#paint33_linear)"/>
<path d="M274.344 283.665L197.304 239.244L215.806 212.719L332.084 214.796L349.948 240.522L274.344 283.665Z" fill="url(#paint34_linear)"/>
<path d="M269.718 249.47L216.764 217.832C214.531 216.554 214.531 213.198 216.764 211.92L270.516 181.241C272.749 179.962 275.301 179.962 277.534 181.241L330.489 212.879C332.722 214.157 332.722 217.513 330.489 218.791L276.736 249.47C274.503 250.748 271.792 250.748 269.718 249.47Z" fill="url(#paint35_linear)"/>
<path d="M273.865 148.005V241.321" stroke="url(#paint36_linear)" stroke-width="0.75" stroke-miterlimit="10" stroke-linecap="round" stroke-linejoin="round"/>
<path d="M273.387 241.321L229.364 214.956L274.025 189.39L318.047 215.755L273.387 241.321Z" stroke="url(#paint37_linear)" stroke-width="0.75" stroke-miterlimit="10" stroke-linecap="round" stroke-linejoin="round"/>
<path d="M273.387 211.281L239.572 190.988L273.865 171.334L307.68 191.627L273.387 211.281Z" stroke="url(#paint38_linear)" stroke-width="0.75" stroke-miterlimit="10" stroke-linecap="round" stroke-linejoin="round"/>
<path d="M286.147 167.179L297.791 225.662" stroke="url(#paint39_linear)" stroke-width="0.75" stroke-miterlimit="10" stroke-linecap="round" stroke-linejoin="round"/>
<path d="M261.105 167.179L249.461 225.662" stroke="url(#paint40_linear)" stroke-width="0.75" stroke-miterlimit="10" stroke-linecap="round" stroke-linejoin="round"/>
<path d="M273.387 175.968L249.781 161.747L273.866 148.005L297.472 162.066L273.387 175.968Z" stroke="url(#paint41_linear)" stroke-width="0.75" stroke-miterlimit="10" stroke-linecap="round" stroke-linejoin="round"/>
<path d="M297.472 162.066L318.047 215.755" stroke="url(#paint42_linear)" stroke-width="0.75" stroke-miterlimit="10" stroke-linecap="round" stroke-linejoin="round"/>
<path d="M249.781 161.747L229.364 214.956" stroke="url(#paint43_linear)" stroke-width="0.75" stroke-miterlimit="10" stroke-linecap="round" stroke-linejoin="round"/>
<path d="M273.865 180.921L242.125 162.546L249.781 151.68L297.791 152.479L305.128 163.025L273.865 180.921Z" fill="url(#paint44_linear)"/>
<path d="M271.951 166.7L250.1 153.597C249.143 152.958 249.143 151.68 250.1 151.201L272.27 138.577C273.227 138.098 274.184 138.098 275.141 138.577L296.993 151.68C297.95 152.319 297.95 153.597 296.993 154.077L274.822 166.7C274.025 167.339 272.908 167.339 271.951 166.7Z" fill="url(#paint45_linear)"/>
<path d="M273.865 114.29V152.639" stroke="#68F149" stroke-width="0.75" stroke-miterlimit="10" stroke-linecap="round" stroke-linejoin="round"/>
<path d="M280.086 114.29C280.086 117.805 277.215 120.521 273.866 120.521C270.357 120.521 267.645 117.645 267.645 114.29C267.645 110.934 270.516 108.058 273.866 108.058C277.215 108.058 280.086 110.774 280.086 114.29Z" fill="url(#paint46_linear)"/>
<path d="M259.669 103.264C267.485 95.4347 280.245 95.4347 288.061 103.264" stroke="white" stroke-width="0.75" stroke-miterlimit="10" stroke-linecap="round" stroke-linejoin="round"/>
<path d="M253.13 96.8727C264.455 85.5278 282.957 85.5278 294.281 96.8727" stroke="white" stroke-width="0.75" stroke-miterlimit="10" stroke-linecap="round" stroke-linejoin="round"/>
<path d="M246.431 90.0018C261.583 74.822 286.147 74.822 301.299 90.0018" stroke="white" stroke-width="0.75" stroke-miterlimit="10" stroke-linecap="round" stroke-linejoin="round"/>
<path d="M558.577 338.632H541.989L449.477 284.783C445.49 282.386 440.386 282.386 436.398 284.783L341.175 337.513H324.428V352.054C324.428 354.93 325.863 357.806 328.734 359.564L435.76 421.242C439.748 423.639 444.852 423.639 448.839 421.242L554.43 360.682C557.301 359.085 558.736 356.208 558.736 353.172V338.632H558.577Z" fill="url(#paint47_linear)"/>
<path d="M435.601 406.542L328.575 344.864C322.833 341.508 322.833 333.359 328.575 330.003L436.239 270.083C440.226 267.686 445.33 267.686 449.318 270.083L554.27 331.122C560.012 334.477 560.012 342.626 554.27 345.982L448.68 406.542C444.692 408.938 439.748 408.938 435.601 406.542Z" fill="url(#paint48_linear)"/>
<path d="M436.717 395.037L347.715 343.905C342.93 341.188 342.93 334.317 347.715 331.601L437.196 281.747C440.545 279.83 444.692 279.83 448.042 281.747L535.289 332.4C540.075 335.116 540.075 341.987 535.289 344.704L447.563 395.037C444.214 397.114 440.067 397.114 436.717 395.037Z" fill="url(#paint49_linear)"/>
<path d="M347.715 339.431L437.196 289.577C440.545 287.659 444.692 287.659 448.042 289.577L535.29 340.23C536.247 340.869 537.044 341.508 537.523 342.467C539.756 339.271 538.958 334.477 535.29 332.4L448.042 281.747C444.692 279.83 440.545 279.83 437.196 281.747L347.715 331.441C343.887 333.678 343.249 338.312 345.322 341.508C345.96 340.709 346.758 340.07 347.715 339.431Z" fill="url(#paint50_linear)"/>
<path d="M554.27 343.426L448.68 403.985C444.692 406.382 439.588 406.382 435.601 403.985L328.575 342.307C326.182 340.869 324.747 338.632 324.428 336.235C323.949 339.591 325.225 343.106 328.575 344.864L435.601 406.542C439.588 408.939 444.692 408.939 448.68 406.542L554.27 345.982C557.62 344.065 558.896 340.549 558.417 337.194C558.098 339.75 556.822 341.987 554.27 343.426Z" fill="white"/>
<path opacity="0.8" d="M436.877 380.496L353.617 332.56C349.151 330.003 349.151 323.612 353.617 321.055L437.355 274.397C440.545 272.639 444.373 272.639 447.563 274.397L529.229 321.854C533.695 324.411 533.695 330.802 529.229 333.359L447.085 380.496C444.054 382.254 440.067 382.254 436.877 380.496Z" fill="white" fill-opacity="0.6"/>
<path opacity="0.6" d="M437.993 359.404L374.192 322.653C370.843 320.736 370.843 315.782 374.192 313.865L438.312 278.072C440.705 276.634 443.735 276.634 446.128 278.072L508.653 314.344C512.002 316.262 512.002 321.215 508.653 323.132L445.649 359.245C443.416 360.842 440.386 360.842 437.993 359.404Z" fill="#57CC3C"/>
<path d="M387.112 235.089L462.875 192.106L464.47 257.939L388.707 300.922L387.112 235.089Z" fill="url(#paint51_linear)"/>
<path d="M387.112 235.089L462.875 192.106L457.771 189.07L382.008 232.053L387.112 235.089Z" fill="url(#paint52_linear)"/>
<path d="M387.112 235.089L382.008 231.894L383.443 297.726L388.707 300.922L387.112 235.089Z" fill="url(#paint53_linear)"/>
<path d="M392.535 238.764L457.931 201.694L459.207 254.264L393.652 291.335L392.535 238.764Z" fill="url(#paint54_linear)"/>
<path d="M426.509 243.398C423.957 244.836 421.405 247.393 419.491 250.749C419.172 251.388 419.172 252.027 419.491 252.187C419.65 252.347 419.969 252.187 420.129 252.187C420.288 252.027 420.607 251.867 420.767 251.548C422.362 248.831 424.435 246.754 426.509 245.476C428.582 244.357 430.656 244.038 432.251 244.836C432.41 244.996 432.729 244.836 432.889 244.836C433.048 244.677 433.367 244.517 433.527 244.197C433.846 243.558 433.846 242.919 433.527 242.759C431.453 241.481 429.061 241.96 426.509 243.398Z" fill="white"/>
<path d="M426.509 238.605C423 240.682 419.332 244.357 416.62 248.991C416.301 249.63 416.301 250.269 416.62 250.429C416.78 250.589 417.099 250.429 417.258 250.429C417.418 250.269 417.737 250.11 417.896 249.79C420.289 245.635 423.319 242.599 426.509 240.682C429.54 238.924 432.73 238.445 435.122 239.883C435.282 240.043 435.601 239.883 435.76 239.883C435.92 239.723 436.239 239.564 436.398 239.244C436.717 238.605 436.717 237.966 436.398 237.806C433.527 236.048 430.018 236.687 426.509 238.605Z" fill="white"/>
<path d="M426.509 233.651C421.564 236.527 417.098 241.321 413.589 247.233C413.27 247.872 413.27 248.512 413.589 248.671C413.749 248.831 414.068 248.671 414.227 248.671C414.387 248.512 414.706 248.352 414.865 248.032C417.896 242.599 422.043 238.285 426.509 235.728C430.975 233.172 434.963 232.693 438.153 234.61C438.312 234.77 438.631 234.61 438.791 234.61C438.95 234.45 439.269 234.29 439.429 233.971C439.748 233.332 439.748 232.693 439.429 232.533C435.92 230.455 431.294 230.935 426.509 233.651Z" fill="white"/>
<path d="M426.509 249.79C424.914 250.749 423.638 252.826 423.638 254.583C423.638 256.341 424.914 257.14 426.509 256.181C428.104 255.223 429.38 253.145 429.38 251.388C429.38 249.63 428.104 248.831 426.509 249.79Z" fill="white"/>
<g opacity="0.7">
<g opacity="0.7">
<g opacity="0.7">
<mask id="mask0" style="mask-type:alpha" maskUnits="userSpaceOnUse" x="392" y="201" width="68" height="91">
<path d="M392.535 238.764L457.931 201.694L459.207 254.264L393.652 291.335L392.535 238.764Z" fill="url(#paint55_linear)"/>
</mask>
<g mask="url(#mask0)">
<path opacity="0.8" d="M458.091 273.598L471.967 265.129L386.793 212.24L372.917 220.708L458.091 273.598Z" fill="#D8EBD4"/>
<path opacity="0.8" d="M438.951 275.196L452.349 274.078L367.175 221.188L353.776 222.306L438.951 275.196Z" fill="#D8EBD4"/>
</g>
</g>
</g>
</g>
<path d="M457.771 253.305L456.655 202.493L457.931 201.694L459.207 254.264L393.651 291.335V289.417L457.771 253.305Z" fill="white"/>
<path d="M436.558 335.756L512.321 292.773L512.002 285.103L388.707 300.922L388.867 308.592L436.558 335.756Z" fill="url(#paint56_linear)"/>
<path d="M436.398 327.926L512.002 285.103L464.471 257.939L388.707 300.922L436.398 327.926Z" fill="url(#paint57_linear)"/>
<path d="M457.771 310.03L479.783 297.566L465.906 289.737L443.895 302.2L457.771 310.03Z" fill="url(#paint58_linear)"/>
<path d="M465.906 291.015L445.011 302.839L443.895 302.2L465.906 289.737L479.783 297.566L478.666 298.206L465.906 291.015Z" fill="white"/>
<path d="M421.245 310.19L482.015 275.516L462.397 264.65L401.467 299.324L421.245 310.19Z" fill="#E5E7FD"/>
<path d="M421.245 310.19L482.015 275.516V272.959L401.467 296.767V299.324L421.245 310.19Z" fill="#91A0DE"/>
<path d="M421.245 307.633L482.015 272.959L462.237 262.094L401.467 296.767L421.245 307.633Z" fill="#E5E7FD"/>
<path d="M417.577 305.556L478.347 270.882L477.869 270.722L416.939 305.396L417.577 305.556Z" fill="white"/>
<path d="M413.43 303.319L474.36 268.645L473.722 268.485L412.951 303.159L413.43 303.319Z" fill="white"/>
<path d="M409.442 301.241L470.213 266.567L469.734 266.248L408.964 300.922L409.442 301.241Z" fill="white"/>
<path d="M405.455 299.004L466.225 264.33L465.746 264.171L404.976 298.845L405.455 299.004Z" fill="white"/>
<path d="M478.187 275.196L478.506 275.036L458.728 264.171L458.409 264.33L478.187 275.196Z" fill="white"/>
<path d="M474.041 277.593L474.36 277.273L454.581 266.567L454.262 266.727L474.041 277.593Z" fill="white"/>
<path d="M469.894 279.83L470.212 279.67L450.594 268.804L450.115 268.964L469.894 279.83Z" fill="white"/>
<path d="M465.746 282.227L466.065 282.067L446.446 271.201L446.127 271.361L465.746 282.227Z" fill="white"/>
<path d="M461.599 284.624L461.918 284.464L442.299 273.598L441.98 273.758L461.599 284.624Z" fill="white"/>
<path d="M457.612 287.02L457.931 286.701L438.153 275.995L437.833 276.155L457.612 287.02Z" fill="white"/>
<path d="M453.465 289.257L453.784 289.098L434.006 278.232L433.687 278.392L453.465 289.257Z" fill="white"/>
<path d="M449.317 291.654L449.636 291.494L429.858 280.629L429.539 280.789L449.317 291.654Z" fill="white"/>
<path d="M445.17 294.051L445.489 293.891L425.711 283.026L425.392 283.185L445.17 294.051Z" fill="white"/>
<path d="M441.024 296.448L441.343 296.128L421.724 285.422L421.405 285.582L441.024 296.448Z" fill="white"/>
<path d="M436.877 298.685L437.196 298.525L417.577 287.659L417.258 287.819L436.877 298.685Z" fill="white"/>
<path d="M432.729 301.082L433.208 300.922L413.429 290.056L413.11 290.216L432.729 301.082Z" fill="white"/>
<path d="M428.742 303.479L429.061 303.319L409.282 292.453L408.963 292.613L428.742 303.479Z" fill="white"/>
<path d="M424.595 305.875L424.914 305.556L405.135 294.85L404.816 295.01L424.595 305.875Z" fill="white"/>
<path d="M417.736 305.716L478.507 271.042L478.028 270.882L417.258 305.556L417.736 305.716Z" fill="#91A0DE"/>
<path d="M413.749 303.638L474.519 268.964L474.04 268.645L413.27 303.319L413.749 303.638Z" fill="#91A0DE"/>
<path d="M409.761 301.401L470.531 266.727L470.053 266.408L409.282 301.082L409.761 301.401Z" fill="#91A0DE"/>
<path d="M405.614 299.164L466.544 264.49L466.066 264.331L405.136 299.005L405.614 299.164Z" fill="#91A0DE"/>
<path d="M477.868 275.356L478.187 275.196L458.569 264.331L458.25 264.49L477.868 275.356Z" fill="#91A0DE"/>
<path d="M473.721 277.593L474.04 277.433L454.422 266.568L454.103 266.887L473.721 277.593Z" fill="#91A0DE"/>
<path d="M469.734 279.99L470.053 279.83L450.275 268.964L449.956 269.124L469.734 279.99Z" fill="#91A0DE"/>
<path d="M465.586 282.387L465.905 282.227L446.127 271.361L445.808 271.521L465.586 282.387Z" fill="#91A0DE"/>
<path d="M461.439 284.783L461.758 284.624L441.98 273.758L441.661 273.918L461.439 284.783Z" fill="#91A0DE"/>
<path d="M457.292 287.02L457.611 286.861L437.833 275.995L437.514 276.315L457.292 287.02Z" fill="#91A0DE"/>
<path d="M453.146 289.417L453.464 289.257L433.846 278.392L433.367 278.552L453.146 289.417Z" fill="#91A0DE"/>
<path d="M448.999 291.814L449.318 291.654L429.699 280.789L429.38 280.949L448.999 291.814Z" fill="#91A0DE"/>
<path d="M444.851 294.211L445.33 294.051L425.551 283.186L425.232 283.345L444.851 294.211Z" fill="#91A0DE"/>
<path d="M440.864 296.448L441.183 296.288L421.404 285.423L421.085 285.742L440.864 296.448Z" fill="#91A0DE"/>
<path d="M436.717 298.845L437.036 298.685L417.258 287.819L416.938 287.979L436.717 298.845Z" fill="#91A0DE"/>
<path d="M432.57 301.242L432.889 301.082L413.111 290.216L412.792 290.376L432.57 301.242Z" fill="#91A0DE"/>
<path d="M428.423 303.638L428.742 303.479L408.964 292.613L408.645 292.773L428.423 303.638Z" fill="#91A0DE"/>
<path d="M424.276 306.035L424.595 305.716L404.976 294.85L404.657 295.17L424.276 306.035Z" fill="#91A0DE"/>
<path d="M234.149 335.596H217.561L125.05 281.747C121.062 279.351 115.958 279.351 111.971 281.747L16.7477 334.477H0V349.018C0 351.894 1.43552 354.77 4.30656 356.528L111.333 418.206C115.32 420.603 120.424 420.603 124.412 418.206L230.002 357.647C232.873 356.049 234.309 353.173 234.309 350.137V335.596H234.149Z" fill="url(#paint59_linear)"/>
<path d="M111.173 403.665L4.30656 341.987C-1.43552 338.632 -1.43552 330.483 4.30656 327.127L111.971 267.207C115.958 264.81 121.062 264.81 125.05 267.207L230.002 328.246C235.744 331.601 235.744 339.75 230.002 343.106L124.252 403.665C120.265 406.062 115.32 406.062 111.173 403.665Z" fill="url(#paint60_linear)"/>
<path d="M112.29 392.161L23.2875 340.869C18.5025 338.152 18.5025 331.282 23.2875 328.565L112.768 278.711C116.118 276.794 120.265 276.794 123.614 278.711L210.862 329.364C215.647 332.08 215.647 338.951 210.862 341.668L123.136 392.001C119.786 394.078 115.639 394.078 112.29 392.161Z" fill="url(#paint61_linear)"/>
<path d="M23.2872 336.555L112.768 286.701C116.118 284.783 120.265 284.783 123.614 286.701L210.862 337.354C211.819 337.993 212.616 338.632 213.095 339.591C215.328 336.395 214.53 331.601 210.862 329.524L123.614 278.871C120.265 276.954 116.118 276.954 112.768 278.871L23.2872 328.565C19.4592 330.802 18.8212 335.436 20.8947 338.632C21.5327 337.833 22.3302 337.034 23.2872 336.555Z" fill="url(#paint62_linear)"/>
<path d="M229.843 340.549L124.252 401.109C120.265 403.506 115.161 403.506 111.173 401.109L4.30664 339.431C1.91411 337.993 0.478587 335.756 0.159582 333.359C-0.318925 336.714 0.957094 340.23 4.30664 341.987L111.173 403.666C115.161 406.062 120.265 406.062 124.252 403.666L229.843 343.106C233.192 341.189 234.468 337.673 233.99 334.318C233.671 336.714 232.395 339.111 229.843 340.549Z" fill="white"/>
<path opacity="0.8" d="M112.609 377.62L29.3486 329.684C24.8825 327.127 24.8825 320.736 29.3486 318.179L113.087 271.521C116.277 269.763 120.105 269.763 123.295 271.521L204.961 318.978C209.427 321.534 209.427 327.926 204.961 330.483L122.817 377.62C119.627 379.378 115.639 379.378 112.609 377.62Z" fill="white" fill-opacity="0.6"/>
<path opacity="0.6" d="M113.566 356.528L49.7646 319.777C46.4151 317.859 46.4151 312.906 49.7646 310.989L113.885 275.196C116.277 273.758 119.308 273.758 121.7 275.196L184.225 311.468C187.575 313.385 187.575 318.339 184.225 320.256L121.222 356.368C118.989 357.966 115.958 357.966 113.566 356.528Z" fill="#57CC3C"/>
<path d="M103.517 234.29L144.19 211.281L145.147 296.767L104.474 319.777L103.517 234.29Z" fill="url(#paint63_linear)"/>
<path d="M103.517 234.29L144.19 211.281L141 209.363L100.327 232.373L103.517 234.29Z" fill="url(#paint64_linear)"/>
<path d="M103.517 234.29L100.327 232.373L101.284 317.859L104.474 319.777L103.517 234.29Z" fill="url(#paint65_linear)"/>
<path d="M107.026 239.084L141 219.909L141.638 285.422L107.664 304.597L107.026 239.084Z" fill="url(#paint66_linear)"/>
<path d="M124.73 264.01C122.178 265.449 119.626 268.005 117.712 271.361C117.393 272 117.393 272.639 117.712 272.799C117.872 272.959 118.191 272.799 118.35 272.799C118.51 272.639 118.829 272.479 118.988 272.16C120.583 269.443 122.657 267.366 124.73 266.088C126.804 264.969 128.878 264.65 130.473 265.449C130.632 265.608 130.951 265.449 131.111 265.449C131.27 265.289 131.589 265.129 131.749 264.809C132.068 264.17 132.068 263.531 131.749 263.371C129.675 262.253 127.283 262.572 124.73 264.01Z" fill="white"/>
<path d="M124.731 259.377C121.222 261.454 117.553 265.129 114.842 269.763C114.523 270.402 114.523 271.041 114.842 271.201C115.001 271.361 115.32 271.201 115.48 271.201C115.639 271.041 115.958 270.881 116.118 270.562C118.51 266.407 121.541 263.371 124.731 261.454C127.761 259.696 130.952 259.217 133.344 260.655C133.504 260.815 133.823 260.655 133.982 260.655C134.142 260.495 134.461 260.335 134.62 260.016C134.939 259.377 134.939 258.737 134.62 258.578C131.749 256.66 128.24 257.299 124.731 259.377Z" fill="white"/>
<path d="M124.731 254.423C119.786 257.299 115.32 262.093 111.811 268.005C111.492 268.644 111.492 269.284 111.811 269.443C111.971 269.603 112.29 269.443 112.449 269.443C112.609 269.284 112.928 269.124 113.087 268.804C116.118 263.371 120.265 259.057 124.731 256.501C129.197 253.944 133.184 253.465 136.374 255.382C136.534 255.542 136.853 255.382 137.012 255.382C137.172 255.222 137.491 255.062 137.65 254.743C137.969 254.104 137.969 253.465 137.65 253.305C134.141 251.068 129.516 251.547 124.731 254.423Z" fill="white"/>
<path d="M124.731 270.402C123.136 271.361 121.86 273.438 121.86 275.196C121.86 276.953 123.136 277.752 124.731 276.794C126.326 275.835 127.602 273.758 127.602 272C127.442 270.242 126.326 269.603 124.731 270.402Z" fill="white"/>
<g opacity="0.7">
<g opacity="0.7">
<mask id="mask1" style="mask-type:alpha" maskUnits="userSpaceOnUse" x="107" y="219" width="35" height="86">
<path d="M107.026 239.084L141 219.909L141.638 285.422L107.664 304.597L107.026 239.084Z" fill="url(#paint67_linear)"/>
</mask>
<g mask="url(#mask1)">
<path opacity="0.8" d="M162.852 304.916L178.004 299.324L104.952 230.615L89.6401 236.208L162.852 304.916Z" fill="#D8EBD4"/>
<path opacity="0.8" d="M143.711 301.082L157.109 306.355L84.0574 237.646L70.6592 232.532L143.711 301.082Z" fill="#D8EBD4"/>
</g>
</g>
</g>
<path d="M140.841 284.783L140.043 220.389L141 219.909L141.638 285.422L107.664 304.597V303.478L140.841 284.783Z" fill="white"/>
<path d="M123.136 300.442C122.338 302.839 123.136 305.076 124.89 305.396C126.645 305.715 128.878 303.798 129.675 301.401C130.473 299.004 129.675 296.767 127.921 296.448C126.166 296.128 123.933 297.886 123.136 300.442Z" fill="url(#paint68_linear)"/>
<path d="M128.878 296.767C129.516 297.726 129.676 299.164 129.038 300.762C128.24 303.159 126.007 305.076 124.253 304.757C123.934 304.757 123.615 304.597 123.296 304.277C123.615 304.757 124.253 305.236 124.891 305.236C126.645 305.556 128.878 303.638 129.676 301.241C130.314 299.324 129.995 297.566 128.878 296.767Z" fill="white"/>
<defs>
<linearGradient id="paint0_linear" x1="242.768" y1="253.126" x2="304.213" y2="253.126" gradientUnits="userSpaceOnUse">
<stop stop-color="#47F4FF"/>
<stop offset="0.1673" stop-color="#41DDFB"/>
<stop offset="0.7363" stop-color="#2F94F0"/>
<stop offset="1" stop-color="#2877EB"/>
</linearGradient>
<linearGradient id="paint1_linear" x1="370.237" y1="253.125" x2="176.743" y2="253.125" gradientUnits="userSpaceOnUse">
<stop stop-color="#47F4FF"/>
<stop offset="0.1673" stop-color="#41DDFB"/>
<stop offset="0.7363" stop-color="#2F94F0"/>
<stop offset="1" stop-color="#2877EB"/>
</linearGradient>
<linearGradient id="paint2_linear" x1="443.408" y1="253.126" x2="103.573" y2="253.126" gradientUnits="userSpaceOnUse">
<stop stop-color="#47F4FF"/>
<stop offset="0.1673" stop-color="#41DDFB"/>
<stop offset="0.7363" stop-color="#2F94F0"/>
<stop offset="1" stop-color="#2877EB"/>
</linearGradient>
<linearGradient id="paint3_linear" x1="528.739" y1="253.126" x2="18.2416" y2="253.126" gradientUnits="userSpaceOnUse">
<stop stop-color="#47F4FF"/>
<stop offset="0.1673" stop-color="#41DDFB"/>
<stop offset="0.7363" stop-color="#2F94F0"/>
<stop offset="1" stop-color="#2877EB"/>
</linearGradient>
<linearGradient id="paint4_linear" x1="0" y1="176.502" x2="234.185" y2="176.502" gradientUnits="userSpaceOnUse">
<stop stop-color="#E5E7FD"/>
<stop offset="0.8309" stop-color="#EDEFFF"/>
<stop offset="1" stop-color="#EFF1FF"/>
</linearGradient>
<linearGradient id="paint5_linear" x1="77.5653" y1="109.991" x2="158.294" y2="214.968" gradientUnits="userSpaceOnUse">
<stop stop-color="#E8ECFF"/>
<stop offset="0.3976" stop-color="#F2F5FF"/>
<stop offset="1" stop-color="#FEFEFE"/>
</linearGradient>
<linearGradient id="paint6_linear" x1="163.171" y1="202.433" x2="80.5525" y2="129.535" gradientUnits="userSpaceOnUse">
<stop stop-color="#419E2C"/>
<stop offset="0.2804" stop-color="#3FB525"/>
<stop offset="0.7807" stop-color="#62DD47"/>
<stop offset="1" stop-color="#68F049"/>
</linearGradient>
<linearGradient id="paint7_linear" x1="163.095" y1="156.486" x2="123.643" y2="91.3997" gradientUnits="userSpaceOnUse">
<stop stop-color="#8EE47B"/>
<stop offset="0.2804" stop-color="#5BEB3B"/>
<stop offset="0.7807" stop-color="#399624"/>
<stop offset="1" stop-color="#317622"/>
</linearGradient>
<linearGradient id="paint8_linear" x1="89.9996" y1="85.131" x2="84.7209" y2="82.3544" gradientUnits="userSpaceOnUse">
<stop stop-color="#419E2C"/>
<stop offset="0.2804" stop-color="#3FB525"/>
<stop offset="0.7807" stop-color="#62DD47"/>
<stop offset="1" stop-color="#68F049"/>
</linearGradient>
<linearGradient id="paint9_linear" x1="77.8875" y1="128.094" x2="162.402" y2="128.094" gradientUnits="userSpaceOnUse">
<stop stop-color="#E5E7FD"/>
<stop offset="0.8309" stop-color="#EDEFFF"/>
<stop offset="1" stop-color="#EFF1FF"/>
</linearGradient>
<linearGradient id="paint10_linear" x1="103.083" y1="95.2715" x2="137.931" y2="140.586" gradientUnits="userSpaceOnUse">
<stop stop-color="#E8ECFF"/>
<stop offset="0.3976" stop-color="#F2F5FF"/>
<stop offset="1" stop-color="#FEFEFE"/>
</linearGradient>
<linearGradient id="paint11_linear" x1="108.499" y1="115.332" x2="131.79" y2="115.332" gradientUnits="userSpaceOnUse">
<stop stop-color="#54ED5A"/>
<stop offset="1" stop-color="#55EABD"/>
</linearGradient>
<linearGradient id="paint12_linear" x1="138.512" y1="139.05" x2="154.438" y2="139.05" gradientUnits="userSpaceOnUse">
<stop stop-color="#54ED5A"/>
<stop offset="1" stop-color="#55EABD"/>
</linearGradient>
<linearGradient id="paint13_linear" x1="138.512" y1="141.607" x2="154.438" y2="141.607" gradientUnits="userSpaceOnUse">
<stop stop-color="#54ED5A"/>
<stop offset="1" stop-color="#55EABD"/>
</linearGradient>
<linearGradient id="paint14_linear" x1="95.1567" y1="131.271" x2="84.1412" y2="124.763" gradientUnits="userSpaceOnUse">
<stop stop-color="#57CC3C"/>
<stop offset="1" stop-color="#9DEC8C"/>
</linearGradient>
<linearGradient id="paint15_linear" x1="319.838" y1="167.318" x2="554.023" y2="167.318" gradientUnits="userSpaceOnUse">
<stop stop-color="#E5E7FD"/>
<stop offset="0.8309" stop-color="#EDEFFF"/>
<stop offset="1" stop-color="#EFF1FF"/>
</linearGradient>
<linearGradient id="paint16_linear" x1="397.404" y1="100.808" x2="478.133" y2="205.784" gradientUnits="userSpaceOnUse">
<stop stop-color="#E8ECFF"/>
<stop offset="0.3976" stop-color="#F2F5FF"/>
<stop offset="1" stop-color="#FEFEFE"/>
</linearGradient>
<linearGradient id="paint17_linear" x1="482.973" y1="193.266" x2="400.28" y2="120.378" gradientUnits="userSpaceOnUse">
<stop stop-color="#419E2C"/>
<stop offset="0.2804" stop-color="#3FB525"/>
<stop offset="0.7807" stop-color="#62DD47"/>
<stop offset="1" stop-color="#68F049"/>
</linearGradient>
<linearGradient id="paint18_linear" x1="482.897" y1="147.378" x2="443.446" y2="82.2917" gradientUnits="userSpaceOnUse">
<stop stop-color="#8EE47B"/>
<stop offset="0.2804" stop-color="#5BEB3B"/>
<stop offset="0.7807" stop-color="#399624"/>
<stop offset="1" stop-color="#317622"/>
</linearGradient>
<linearGradient id="paint19_linear" x1="483.37" y1="118.232" x2="398.855" y2="118.232" gradientUnits="userSpaceOnUse">
<stop stop-color="#E5E7FD"/>
<stop offset="0.8309" stop-color="#EDEFFF"/>
<stop offset="1" stop-color="#EFF1FF"/>
</linearGradient>
<linearGradient id="paint20_linear" x1="458.175" y1="85.4091" x2="423.327" y2="130.724" gradientUnits="userSpaceOnUse">
<stop stop-color="#FEFEFE"/>
<stop offset="0.6024" stop-color="#F2F5FF"/>
<stop offset="1" stop-color="#E8ECFF"/>
</linearGradient>
<linearGradient id="paint21_linear" x1="422.584" y1="103.958" x2="454.091" y2="103.958" gradientUnits="userSpaceOnUse">
<stop stop-color="#54ED5A"/>
<stop offset="1" stop-color="#55EABD"/>
</linearGradient>
<linearGradient id="paint22_linear" x1="460.388" y1="118.278" x2="476.314" y2="118.278" gradientUnits="userSpaceOnUse">
<stop stop-color="#54ED5A"/>
<stop offset="1" stop-color="#55EABD"/>
</linearGradient>
<linearGradient id="paint23_linear" x1="460.388" y1="120.835" x2="476.314" y2="120.835" gradientUnits="userSpaceOnUse">
<stop stop-color="#54ED5A"/>
<stop offset="1" stop-color="#55EABD"/>
</linearGradient>
<linearGradient id="paint24_linear" x1="440.517" y1="119.5" x2="462.593" y2="106.416" gradientUnits="userSpaceOnUse">
<stop stop-color="#54EDC8"/>
<stop offset="1" stop-color="#55DFEA"/>
</linearGradient>
<linearGradient id="paint25_linear" x1="440.482" y1="119.442" x2="462.558" y2="106.357" gradientUnits="userSpaceOnUse">
<stop stop-color="#54EDC8"/>
<stop offset="1" stop-color="#55DFEA"/>
</linearGradient>
<linearGradient id="paint26_linear" x1="440.448" y1="119.383" x2="462.524" y2="106.299" gradientUnits="userSpaceOnUse">
<stop stop-color="#54EDC8"/>
<stop offset="1" stop-color="#55DFEA"/>
</linearGradient>
<linearGradient id="paint27_linear" x1="440.413" y1="119.324" x2="462.489" y2="106.24" gradientUnits="userSpaceOnUse">
<stop stop-color="#54EDC8"/>
<stop offset="1" stop-color="#55DFEA"/>
</linearGradient>
<linearGradient id="paint28_linear" x1="440.378" y1="119.266" x2="462.454" y2="106.182" gradientUnits="userSpaceOnUse">
<stop stop-color="#54EDC8"/>
<stop offset="1" stop-color="#55DFEA"/>
</linearGradient>
<linearGradient id="paint29_linear" x1="156.428" y1="261.093" x2="392.175" y2="261.093" gradientUnits="userSpaceOnUse">
<stop stop-color="#E5E7FD"/>
<stop offset="0.8309" stop-color="#EDEFFF"/>
<stop offset="1" stop-color="#EFF1FF"/>
</linearGradient>
<linearGradient id="paint30_linear" x1="234.512" y1="194.139" x2="315.779" y2="299.816" gradientUnits="userSpaceOnUse">
<stop stop-color="#E8ECFF"/>
<stop offset="0.3976" stop-color="#F2F5FF"/>
<stop offset="1" stop-color="#FEFEFE"/>
</linearGradient>
<linearGradient id="paint31_linear" x1="320.687" y1="287.197" x2="237.517" y2="213.813" gradientUnits="userSpaceOnUse">
<stop stop-color="#1A4DB6"/>
<stop offset="0.2804" stop-color="#2156C2"/>
<stop offset="0.7807" stop-color="#356FE0"/>
<stop offset="1" stop-color="#3F7CF0"/>
</linearGradient>
<linearGradient id="paint32_linear" x1="320.702" y1="287.023" x2="237.596" y2="213.695" gradientUnits="userSpaceOnUse">
<stop stop-color="#3F7CF0"/>
<stop offset="0.2193" stop-color="#356FE0"/>
<stop offset="0.7196" stop-color="#2156C2"/>
<stop offset="1" stop-color="#1A4DB6"/>
</linearGradient>
<linearGradient id="paint33_linear" x1="274.302" y1="263.177" x2="274.302" y2="62.6256" gradientUnits="userSpaceOnUse">
<stop stop-color="#57CC3C"/>
<stop offset="1" stop-color="#FEFEFE" stop-opacity="0"/>
</linearGradient>
<linearGradient id="paint34_linear" x1="217.743" y1="203.473" x2="298.134" y2="246.433" gradientUnits="userSpaceOnUse">
<stop stop-color="#E5E7FD"/>
<stop offset="0.8309" stop-color="#EDEFFF"/>
<stop offset="1" stop-color="#EFF1FF"/>
</linearGradient>
<linearGradient id="paint35_linear" x1="302.439" y1="236.095" x2="234.317" y2="187.183" gradientUnits="userSpaceOnUse">
<stop stop-color="#FEFEFE"/>
<stop offset="0.6024" stop-color="#F2F5FF"/>
<stop offset="1" stop-color="#E8ECFF"/>
</linearGradient>
<linearGradient id="paint36_linear" x1="274.602" y1="227.186" x2="273.847" y2="227.182" gradientUnits="userSpaceOnUse">
<stop stop-color="#419E2C"/>
<stop offset="0.2804" stop-color="#3FB525"/>
<stop offset="0.7807" stop-color="#62DD47"/>
<stop offset="1" stop-color="#68F049"/>
</linearGradient>
<linearGradient id="paint37_linear" x1="294.696" y1="233.455" x2="257.724" y2="200.185" gradientUnits="userSpaceOnUse">
<stop stop-color="#419E2C"/>
<stop offset="0.2804" stop-color="#3FB525"/>
<stop offset="0.7807" stop-color="#62DD47"/>
<stop offset="1" stop-color="#68F049"/>
</linearGradient>
<linearGradient id="paint38_linear" x1="289.746" y1="205.23" x2="261.311" y2="179.683" gradientUnits="userSpaceOnUse">
<stop stop-color="#419E2C"/>
<stop offset="0.2804" stop-color="#3FB525"/>
<stop offset="0.7807" stop-color="#62DD47"/>
<stop offset="1" stop-color="#68F049"/>
</linearGradient>
<linearGradient id="paint39_linear" x1="294.725" y1="216.803" x2="286.035" y2="215.892" gradientUnits="userSpaceOnUse">
<stop stop-color="#419E2C"/>
<stop offset="0.2804" stop-color="#3FB525"/>
<stop offset="0.7807" stop-color="#62DD47"/>
<stop offset="1" stop-color="#68F049"/>
</linearGradient>
<linearGradient id="paint40_linear" x1="258.039" y1="216.803" x2="249.35" y2="215.892" gradientUnits="userSpaceOnUse">
<stop stop-color="#419E2C"/>
<stop offset="0.2804" stop-color="#3FB525"/>
<stop offset="0.7807" stop-color="#62DD47"/>
<stop offset="1" stop-color="#68F049"/>
</linearGradient>
<linearGradient id="paint41_linear" x1="289.961" y1="173.689" x2="257.268" y2="150.214" gradientUnits="userSpaceOnUse">
<stop stop-color="#47F4FF"/>
<stop offset="0.1673" stop-color="#41DDFB"/>
<stop offset="0.7363" stop-color="#2F94F0"/>
<stop offset="1" stop-color="#2877EB"/>
</linearGradient>
<linearGradient id="paint42_linear" x1="312.63" y1="207.622" x2="297.714" y2="204.61" gradientUnits="userSpaceOnUse">
<stop stop-color="#419E2C"/>
<stop offset="0.2804" stop-color="#3FB525"/>
<stop offset="0.7807" stop-color="#62DD47"/>
<stop offset="1" stop-color="#68F049"/>
</linearGradient>
<linearGradient id="paint43_linear" x1="244.405" y1="206.896" x2="229.606" y2="203.904" gradientUnits="userSpaceOnUse">
<stop stop-color="#419E2C"/>
<stop offset="0.2804" stop-color="#3FB525"/>
<stop offset="0.7807" stop-color="#62DD47"/>
<stop offset="1" stop-color="#68F049"/>
</linearGradient>
<linearGradient id="paint44_linear" x1="250.567" y1="147.785" x2="283.746" y2="165.516" gradientUnits="userSpaceOnUse">
<stop stop-color="#E5E7FD"/>
<stop offset="0.8309" stop-color="#EDEFFF"/>
<stop offset="1" stop-color="#EFF1FF"/>
</linearGradient>
<linearGradient id="paint45_linear" x1="285.522" y1="161.249" x2="257.407" y2="141.062" gradientUnits="userSpaceOnUse">
<stop stop-color="#FEFEFE"/>
<stop offset="0.6024" stop-color="#F2F5FF"/>
<stop offset="1" stop-color="#E8ECFF"/>
</linearGradient>
<linearGradient id="paint46_linear" x1="276.81" y1="118.633" x2="269.458" y2="114.766" gradientUnits="userSpaceOnUse">
<stop stop-color="#419E2C"/>
<stop offset="0.2804" stop-color="#3FB525"/>
<stop offset="0.7807" stop-color="#62DD47"/>
<stop offset="1" stop-color="#68F049"/>
</linearGradient>
<linearGradient id="paint47_linear" x1="324.422" y1="352.979" x2="558.607" y2="352.979" gradientUnits="userSpaceOnUse">
<stop stop-color="#E5E7FD"/>
<stop offset="0.8309" stop-color="#EDEFFF"/>
<stop offset="1" stop-color="#EFF1FF"/>
</linearGradient>
<linearGradient id="paint48_linear" x1="401.987" y1="286.469" x2="482.716" y2="391.445" gradientUnits="userSpaceOnUse">
<stop stop-color="#E8ECFF"/>
<stop offset="0.3976" stop-color="#F2F5FF"/>
<stop offset="1" stop-color="#FEFEFE"/>
</linearGradient>
<linearGradient id="paint49_linear" x1="487.598" y1="378.981" x2="404.993" y2="306.081" gradientUnits="userSpaceOnUse">
<stop stop-color="#419E2C"/>
<stop offset="0.2804" stop-color="#3FB525"/>
<stop offset="0.7807" stop-color="#62DD47"/>
<stop offset="1" stop-color="#68F049"/>
</linearGradient>
<linearGradient id="paint50_linear" x1="487.523" y1="333.051" x2="448.071" y2="267.965" gradientUnits="userSpaceOnUse">
<stop stop-color="#8EE47B"/>
<stop offset="0.2804" stop-color="#5BEB3B"/>
<stop offset="0.7807" stop-color="#399624"/>
<stop offset="1" stop-color="#317622"/>
</linearGradient>
<linearGradient id="paint51_linear" x1="409.574" y1="269.292" x2="469.309" y2="208.094" gradientUnits="userSpaceOnUse">
<stop stop-color="#E8ECFF"/>
<stop offset="0.3976" stop-color="#F2F5FF"/>
<stop offset="1" stop-color="#FEFEFE"/>
</linearGradient>
<linearGradient id="paint52_linear" x1="411.872" y1="226.993" x2="451.019" y2="186.887" gradientUnits="userSpaceOnUse">
<stop stop-color="#FEFEFE"/>
<stop offset="0.6024" stop-color="#F2F5FF"/>
<stop offset="1" stop-color="#E8ECFF"/>
</linearGradient>
<linearGradient id="paint53_linear" x1="388.116" y1="235.75" x2="377.787" y2="296.547" gradientUnits="userSpaceOnUse">
<stop stop-color="#E8ECFF"/>
<stop offset="0.4848" stop-color="#F5F7FE"/>
<stop offset="1" stop-color="#FEFEFE"/>
</linearGradient>
<linearGradient id="paint54_linear" x1="378.789" y1="278.806" x2="415.92" y2="216.652" gradientUnits="userSpaceOnUse">
<stop stop-color="#47FF7B"/>
<stop offset="0.1673" stop-color="#41FBA2"/>
<stop offset="0.7363" stop-color="#2FF0AB"/>
<stop offset="1" stop-color="#28EBBC"/>
</linearGradient>
<linearGradient id="paint55_linear" x1="378.789" y1="278.806" x2="415.92" y2="216.652" gradientUnits="userSpaceOnUse">
<stop stop-color="#47FF7B"/>
<stop offset="0.1673" stop-color="#41FBA2"/>
<stop offset="0.7363" stop-color="#2FF0AB"/>
<stop offset="1" stop-color="#28EBBC"/>
</linearGradient>
<linearGradient id="paint56_linear" x1="437.585" y1="314.92" x2="484.988" y2="266.356" gradientUnits="userSpaceOnUse">
<stop stop-color="#E8ECFF"/>
<stop offset="0.3976" stop-color="#F2F5FF"/>
<stop offset="1" stop-color="#FEFEFE"/>
</linearGradient>
<linearGradient id="paint57_linear" x1="438.175" y1="310.106" x2="483.086" y2="264.094" gradientUnits="userSpaceOnUse">
<stop stop-color="#FEFEFE"/>
<stop offset="0.6024" stop-color="#F2F5FF"/>
<stop offset="1" stop-color="#E8ECFF"/>
</linearGradient>
<linearGradient id="paint58_linear" x1="443.829" y1="299.77" x2="479.724" y2="299.77" gradientUnits="userSpaceOnUse">
<stop stop-color="#54ED5A"/>
<stop offset="1" stop-color="#55EABD"/>
</linearGradient>
<linearGradient id="paint59_linear" x1="0" y1="350.039" x2="234.185" y2="350.039" gradientUnits="userSpaceOnUse">
<stop stop-color="#E5E7FD"/>
<stop offset="0.8309" stop-color="#EDEFFF"/>
<stop offset="1" stop-color="#EFF1FF"/>
</linearGradient>
<linearGradient id="paint60_linear" x1="77.5653" y1="283.529" x2="158.294" y2="388.505" gradientUnits="userSpaceOnUse">
<stop stop-color="#E8ECFF"/>
<stop offset="0.3976" stop-color="#F2F5FF"/>
<stop offset="1" stop-color="#FEFEFE"/>
</linearGradient>
<linearGradient id="paint61_linear" x1="163.171" y1="375.962" x2="80.5526" y2="303.064" gradientUnits="userSpaceOnUse">
<stop stop-color="#419E2C"/>
<stop offset="0.2804" stop-color="#3FB525"/>
<stop offset="0.7807" stop-color="#62DD47"/>
<stop offset="1" stop-color="#68F049"/>
</linearGradient>
<linearGradient id="paint62_linear" x1="163.095" y1="330.175" x2="123.643" y2="265.089" gradientUnits="userSpaceOnUse">
<stop stop-color="#8EE47B"/>
<stop offset="0.2804" stop-color="#5BEB3B"/>
<stop offset="0.7807" stop-color="#399624"/>
<stop offset="1" stop-color="#317622"/>
</linearGradient>
<linearGradient id="paint63_linear" x1="111.113" y1="284.082" x2="159.722" y2="234.282" gradientUnits="userSpaceOnUse">
<stop stop-color="#E8ECFF"/>
<stop offset="0.3976" stop-color="#F2F5FF"/>
<stop offset="1" stop-color="#FEFEFE"/>
</linearGradient>
<linearGradient id="paint64_linear" x1="116.549" y1="229.886" x2="137.655" y2="208.262" gradientUnits="userSpaceOnUse">
<stop stop-color="#FEFEFE"/>
<stop offset="0.6024" stop-color="#F2F5FF"/>
<stop offset="1" stop-color="#E8ECFF"/>
</linearGradient>
<linearGradient id="paint65_linear" x1="105.902" y1="236.937" x2="92.6926" y2="314.688" gradientUnits="userSpaceOnUse">
<stop stop-color="#E8ECFF"/>
<stop offset="0.4848" stop-color="#F5F7FE"/>
<stop offset="1" stop-color="#FEFEFE"/>
</linearGradient>
<linearGradient id="paint66_linear" x1="99.8896" y1="292.76" x2="139.589" y2="256.244" gradientUnits="userSpaceOnUse">
<stop stop-color="#47FF7B"/>
<stop offset="0.1673" stop-color="#41FBA2"/>
<stop offset="0.7363" stop-color="#2FF0AB"/>
<stop offset="1" stop-color="#28EBBC"/>
</linearGradient>
<linearGradient id="paint67_linear" x1="99.8896" y1="292.76" x2="139.589" y2="256.244" gradientUnits="userSpaceOnUse">
<stop stop-color="#47F4FF"/>
<stop offset="0.1673" stop-color="#41DDFB"/>
<stop offset="0.7363" stop-color="#2FF0C2"/>
<stop offset="1" stop-color="#28EBBC"/>
</linearGradient>
<linearGradient id="paint68_linear" x1="122.588" y1="303.148" x2="130.3" y2="298.592" gradientUnits="userSpaceOnUse">
<stop stop-color="#54EDC8"/>
<stop offset="1" stop-color="#55DFEA"/>
</linearGradient>
</defs>
</svg>
