<svg width="175" height="176" viewBox="0 0 175 176" fill="none" xmlns="http://www.w3.org/2000/svg">
<g filter="url(#filter0_d)">
<rect x="36.6323" y="36.3367" width="102.26" height="103.452" rx="30" fill="url(#paint0_linear)"/>
</g>
<g clip-path="url(#clip0)">
<path d="M99.7622 84.0627C104.174 84.0627 107.762 80.4742 107.762 76.0627C107.762 71.6513 104.174 68.0627 99.7622 68.0627C96.5588 68.0627 93.7967 69.9596 92.5203 72.6855L90.3781 71.8948C90.4035 71.7307 90.4289 71.5667 90.4289 71.3961C90.4289 69.5582 88.9334 68.0627 87.0955 68.0627C85.2577 68.0627 83.7622 69.5582 83.7622 71.3961C83.7622 73.234 85.2577 74.7294 87.0955 74.7294C88.2896 74.7294 89.3309 74.0927 89.9194 73.1467L92.0581 73.9361C91.8703 74.6148 91.7622 75.3254 91.7622 76.0627C91.7622 76.9361 91.9074 77.7747 92.1675 78.5621L84.8354 81.6695C83.493 79.1314 80.8283 77.3961 77.7622 77.3961C76.7687 77.3961 75.8208 77.5868 74.9422 77.9189L73.0981 74.0435C73.9015 73.4342 74.4289 72.4794 74.4289 71.3961C74.4289 69.5582 72.9334 68.0627 71.0955 68.0627C69.2576 68.0627 67.7622 69.5582 67.7622 71.3961C67.7622 73.234 69.2576 74.7294 71.0955 74.7294C71.3729 74.7294 71.6388 74.6855 71.897 74.6207L73.7388 78.4921C71.3647 79.8814 69.7622 82.4521 69.7622 85.3961C69.7622 88.1614 71.173 90.6021 73.3117 92.0393L72.0923 94.2314C71.7749 94.1314 71.4448 94.0627 71.0955 94.0627C69.2576 94.0627 67.7622 95.5582 67.7622 97.3961C67.7622 99.234 69.2576 100.729 71.0955 100.729C72.9334 100.729 74.4289 99.234 74.4289 97.3961C74.4289 96.3866 73.9683 95.4915 73.2576 94.8801L74.4797 92.6835C75.4823 93.1373 76.5916 93.3961 77.7622 93.3961C79.5916 93.3961 81.2743 92.7721 82.6235 91.7346L85.2476 94.6213C83.9168 96.0507 83.0955 97.9602 83.0955 100.063C83.0955 100.471 83.1362 100.868 83.1948 101.259L80.1076 101.992C79.5763 100.856 78.4302 100.063 77.0955 100.063C75.2576 100.063 73.7622 101.558 73.7622 103.396C73.7622 105.234 75.2576 106.729 77.0955 106.729C78.9334 106.729 80.4289 105.234 80.4289 103.396C80.4289 103.359 80.4188 103.325 80.4181 103.288L83.4995 102.558C84.5503 105.75 87.5555 108.063 91.0955 108.063C95.507 108.063 99.0955 104.474 99.0955 100.063C99.0955 98.6949 98.7495 97.4068 98.1414 96.2802L102.057 93.734C102.663 94.3472 103.501 94.7294 104.429 94.7294C106.267 94.7294 107.762 93.234 107.762 91.3961C107.762 89.5582 106.267 88.0627 104.429 88.0627C102.591 88.0627 101.096 89.5582 101.096 91.3961C101.096 91.8267 101.184 92.2359 101.333 92.6142L97.4084 95.1659C96.6229 94.1562 95.603 93.3407 94.4289 92.7994L97.6828 83.7789C98.3468 83.9579 99.0422 84.0627 99.7622 84.0627ZM87.0955 73.3961C85.993 73.3961 85.0955 72.4986 85.0955 71.3961C85.0955 70.2935 85.993 69.3961 87.0955 69.3961C88.1981 69.3961 89.0955 70.2935 89.0955 71.3961C89.0955 72.4986 88.1981 73.3961 87.0955 73.3961ZM69.0955 71.3961C69.0955 70.2935 69.993 69.3961 71.0955 69.3961C72.1981 69.3961 73.0955 70.2935 73.0955 71.3961C73.0955 72.4986 72.1981 73.3961 71.0955 73.3961C69.993 73.3961 69.0955 72.4986 69.0955 71.3961ZM71.0955 99.3961C69.993 99.3961 69.0955 98.4986 69.0955 97.3961C69.0955 96.2935 69.993 95.3961 71.0955 95.3961C72.1981 95.3961 73.0955 96.2935 73.0955 97.3961C73.0955 98.4986 72.1981 99.3961 71.0955 99.3961ZM77.0955 105.396C75.993 105.396 75.0955 104.499 75.0955 103.396C75.0955 102.294 75.993 101.396 77.0955 101.396C78.1981 101.396 79.0955 102.294 79.0955 103.396C79.0955 104.499 78.1981 105.396 77.0955 105.396ZM104.429 89.3961C105.531 89.3961 106.429 90.2935 106.429 91.3961C106.429 92.4986 105.531 93.3961 104.429 93.3961C103.326 93.3961 102.429 92.4986 102.429 91.3961C102.429 90.2935 103.326 89.3961 104.429 89.3961ZM95.8361 81.4387C96.1336 79.8967 97.493 78.7294 99.0955 78.7294H100.429C102.031 78.7294 103.391 79.8967 103.688 81.4387C102.585 82.246 101.231 82.7294 99.7622 82.7294C98.2935 82.7294 96.939 82.246 95.8361 81.4387ZM99.7622 77.3961C98.6597 77.3961 97.7622 76.4986 97.7622 75.3961C97.7622 74.2935 98.6597 73.3961 99.7622 73.3961C100.865 73.3961 101.762 74.2935 101.762 75.3961C101.762 76.4986 100.865 77.3961 99.7622 77.3961ZM99.7622 69.3961C103.438 69.3961 106.429 72.3866 106.429 76.0627C106.429 77.7294 105.809 79.2522 104.794 80.4221C104.327 79.192 103.353 78.2102 102.139 77.7255C102.73 77.1239 103.096 76.3027 103.096 75.3961C103.096 73.5582 101.6 72.0627 99.7622 72.0627C97.9243 72.0627 96.4289 73.5582 96.4289 75.3961C96.4289 76.3027 96.7948 77.1239 97.3849 77.7255C96.1714 78.2102 95.1974 79.192 94.7303 80.4221C93.715 79.2522 93.0955 77.7294 93.0955 76.0627C93.0955 72.3866 96.0861 69.3961 99.7622 69.3961ZM71.0955 85.3961C71.0955 81.72 74.0861 78.7294 77.7622 78.7294C81.4383 78.7294 84.4289 81.72 84.4289 85.3961C84.4289 87.068 83.8055 88.5946 82.785 89.7662C82.3195 88.5315 81.3436 87.5448 80.1268 87.0588C80.7163 86.4573 81.0822 85.636 81.0822 84.7294C81.0822 82.8915 79.5868 81.3961 77.7489 81.3961C75.911 81.3961 74.4155 82.8915 74.4155 84.7294C74.4155 85.636 74.7814 86.4573 75.3716 87.0588C74.1616 87.5413 73.189 88.5195 72.7202 89.7447C71.7108 88.5761 71.0955 87.0582 71.0955 85.3961ZM75.7489 84.7294C75.7489 83.6269 76.6463 82.7294 77.7489 82.7294C78.8514 82.7294 79.7489 83.6269 79.7489 84.7294C79.7489 85.832 78.8514 86.7294 77.7489 86.7294C76.6463 86.7294 75.7489 85.832 75.7489 84.7294ZM73.825 90.7633C74.1255 89.2255 75.4829 88.0627 77.0822 88.0627H78.4155C80.021 88.0627 81.383 89.234 81.6763 90.7808C80.5757 91.5833 79.2254 92.0627 77.7622 92.0627C76.2882 92.0627 74.9295 91.5761 73.825 90.7633ZM87.1584 105.43C87.4588 103.892 88.8162 102.729 90.4155 102.729H91.7489C93.3543 102.729 94.7163 103.901 95.0096 105.448C93.909 106.25 92.5588 106.729 91.0955 106.729C89.6216 106.729 88.2629 106.243 87.1584 105.43ZM91.0822 101.396C89.9797 101.396 89.0822 100.499 89.0822 99.3961C89.0822 98.2935 89.9797 97.3961 91.0822 97.3961C92.1847 97.3961 93.0822 98.2935 93.0822 99.3961C93.0822 100.499 92.1847 101.396 91.0822 101.396ZM97.7622 100.063C97.7622 101.735 97.1388 103.261 96.1183 104.433C95.6528 103.198 94.6769 102.212 93.4601 101.726C94.0496 101.124 94.4155 100.303 94.4155 99.3961C94.4155 97.5582 92.9201 96.0627 91.0822 96.0627C89.2443 96.0627 87.7489 97.5582 87.7489 99.3961C87.7489 100.303 88.1147 101.124 88.7049 101.726C87.495 102.208 86.5223 103.186 86.0535 104.411C85.0441 103.243 84.4289 101.725 84.4289 100.063C84.4289 96.3866 87.4194 93.3961 91.0955 93.3961C94.7716 93.3961 97.7622 96.3866 97.7622 100.063ZM93.175 92.3466C92.5109 92.1676 91.8156 92.0627 91.0955 92.0627C89.2661 92.0627 87.5835 92.6868 86.2342 93.7242L83.6102 90.8375C84.9409 89.4081 85.7622 87.4986 85.7622 85.3961C85.7622 84.5227 85.617 83.6842 85.3569 82.8967L92.689 79.7893C93.5103 81.342 94.8283 82.5881 96.4295 83.3261L93.175 92.3466Z" fill="white"/>
</g>
<defs>
<filter id="filter0_d" x="0.632324" y="0.33667" width="174.26" height="175.452" filterUnits="userSpaceOnUse" color-interpolation-filters="sRGB">
<feFlood flood-opacity="0" result="BackgroundImageFix"/>
<feColorMatrix in="SourceAlpha" type="matrix" values="0 0 0 0 0 0 0 0 0 0 0 0 0 0 0 0 0 0 127 0" result="hardAlpha"/>
<feOffset/>
<feGaussianBlur stdDeviation="18"/>
<feComposite in2="hardAlpha" operator="out"/>
<feColorMatrix type="matrix" values="0 0 0 0 0 0 0 0 0 0 0 0 0 0 0 0 0 0 0.12 0"/>
<feBlend mode="normal" in2="BackgroundImageFix" result="effect1_dropShadow"/>
<feBlend mode="normal" in="SourceGraphic" in2="effect1_dropShadow" result="shape"/>
</filter>
<linearGradient id="paint0_linear" x1="32.9802" y1="139.789" x2="138.892" y2="139.789" gradientUnits="userSpaceOnUse">
<stop stop-color="#54A941"/>
<stop offset="1" stop-color="#6BC058"/>
</linearGradient>
<clipPath id="clip0">
<rect width="40" height="40" fill="white" transform="translate(67.7622 68.0627)"/>
</clipPath>
</defs>
</svg>
