<svg width="41" height="41" viewBox="0 0 41 41" fill="none" xmlns="http://www.w3.org/2000/svg">
<path fill-rule="evenodd" clip-rule="evenodd" d="M19.9928 0.158351C19.521 0.287311 18.7164 1.00989 18.5717 1.43453C18.4943 1.66161 18.4545 2.45112 18.4541 3.76865L18.4532 5.75965L17.8117 6.05142C17.0434 6.40087 15.947 7.31468 15.4922 7.98457C15.3167 8.24316 15.0603 8.7299 14.9226 9.06618C14.6871 9.64096 14.6697 9.79084 14.632 11.5628L14.592 13.4479L14.1443 13.6238C13.469 13.8892 13.0444 14.2362 12.6906 14.8116C12.4501 15.203 12.3603 15.4674 12.3274 15.8807C12.2966 16.2669 12.3311 16.5412 12.4437 16.805C12.5318 17.0114 12.6117 17.234 12.6215 17.2998C12.6321 17.3711 12.5228 17.4411 12.3509 17.473C11.5163 17.6281 10.6957 18.2063 10.282 18.9308L10.044 19.3476L10.0185 29.7052L9.99292 40.0629H10.7635H11.5339V35.135V30.2072L11.9413 30.7377C12.4789 31.4376 13.8204 32.5894 14.6591 33.0711C17.4105 34.6512 20.4286 35.0957 23.6125 34.3897C24.6919 34.1504 26.5174 33.3429 27.4592 32.6882C28.3045 32.1005 29.0776 31.3754 29.6388 30.6441L29.9897 30.1868V35.1248V40.0629H30.7606H31.5314L31.5055 29.7052L31.4797 19.3476L31.2417 18.9308C31.1107 18.7015 30.8296 18.363 30.6169 18.1785C30.2173 17.832 29.4603 17.4719 29.1314 17.4719C29.0281 17.4719 28.9178 17.4355 28.886 17.391C28.8543 17.3466 28.904 17.1871 28.9964 17.0367C29.1172 16.8402 29.1657 16.564 29.1686 16.0548C29.1724 15.4025 29.1465 15.3044 28.8431 14.819C28.4767 14.2329 28.054 13.8889 27.3704 13.6203L26.9138 13.4408V11.8684C26.9138 10.109 26.7845 9.34911 26.3429 8.51441C25.7828 7.45547 24.7695 6.53125 23.5736 5.98856L23.0693 5.75965L23.069 3.76865C23.0689 2.47213 23.0289 1.66227 22.9545 1.44687C22.7871 0.962122 22.1044 0.342663 21.5606 0.181943C21.0526 0.0318088 20.4869 0.0233059 19.9928 0.158351ZM21.2948 1.58783C21.4436 1.71679 21.5308 1.88768 21.5308 2.05007C21.5308 2.39277 21.157 2.71696 20.7618 2.71696C20.5746 2.71696 20.3775 2.64135 20.2288 2.51231C20.08 2.38335 19.9928 2.21246 19.9928 2.05007C19.9928 1.70737 20.3666 1.38318 20.7618 1.38318C20.9491 1.38318 21.1461 1.45879 21.2948 1.58783ZM21.5308 7.49315V10.9773L21.2948 11.1819C20.9827 11.4527 20.5409 11.4527 20.2288 11.1819L19.9928 10.9773V7.49315V4.00906H20.7618H21.5308V7.49315ZM18.4548 9.14696C18.4548 10.3519 18.4954 11.1111 18.5717 11.3352C18.7277 11.7931 19.524 12.4837 20.052 12.619C20.9697 12.8541 21.8006 12.6564 22.4247 12.0544C22.6533 11.8339 22.8916 11.5048 22.9545 11.3229C23.0278 11.1105 23.0688 10.3314 23.0688 9.14696C23.0688 8.01916 23.1048 7.30184 23.1614 7.30184C23.2123 7.30184 23.53 7.52575 23.8673 7.79942C25.1243 8.8191 25.6444 10.2906 25.2324 11.6622C25.0205 12.3677 24.6489 12.9445 24.0631 13.4771C22.9294 14.5078 21.2166 14.9449 19.6749 14.5966C18.8614 14.4129 18.1964 14.0906 17.5822 13.5826C16.3888 12.5955 15.8896 11.1145 16.295 9.7645C16.5226 9.0065 16.9773 8.35019 17.6563 7.79942C17.9936 7.52575 18.3113 7.30184 18.3623 7.30184C18.4188 7.30184 18.4548 8.01916 18.4548 9.14696ZM18.0223 15.478C19.7747 16.2293 21.7202 16.2388 23.441 15.5044C23.8308 15.3381 24.4255 14.999 24.7627 14.751L25.3758 14.2999V17.8371V21.3742L24.9118 21.4296C24.2431 21.5094 23.3766 21.9525 22.9597 22.4278C22.5562 22.888 22.2998 23.5051 22.2998 24.0166V24.3734L21.699 24.2082C21.259 24.0872 20.944 24.0547 20.5215 24.0871C20.2043 24.1114 19.7884 24.1881 19.5972 24.2575L19.2495 24.3838L19.2007 23.8559C19.1655 23.4757 19.0629 23.1834 18.8341 22.8112C18.6594 22.527 18.3633 22.1849 18.1762 22.0511C17.722 21.7264 17.1515 21.5015 16.6003 21.4298L16.1479 21.371V17.8309V14.2909L16.7006 14.7196C17.0045 14.9554 17.5993 15.2967 18.0223 15.478ZM14.5567 17.129C14.5243 17.1571 14.374 17.0598 14.2226 16.9129C13.7143 16.4196 13.7275 15.6841 14.2541 15.1636L14.5618 14.8595L14.5887 15.9687C14.6035 16.5787 14.5891 17.1009 14.5567 17.129ZM27.3339 15.2236C27.6123 15.5104 27.7336 15.9385 27.6453 16.3217C27.5813 16.5986 27.1582 17.1385 27.005 17.1385C26.9521 17.1385 26.9138 16.6829 26.9138 16.0548C26.9138 15.4584 26.9532 14.9711 27.0013 14.9711C27.0495 14.9711 27.1992 15.0847 27.3339 15.2236ZM13.6802 18.8361C14.09 18.9845 14.4901 19.4037 14.5687 19.7668C14.6723 20.246 14.5359 20.6204 14.1292 20.9731C13.4934 21.5245 12.6324 21.5285 12.0032 20.9829C11.429 20.485 11.3829 19.7401 11.8934 19.2139C12.3426 18.7509 13.039 18.6037 13.6802 18.8361ZM29.0669 18.8386C29.2433 18.9025 29.5054 19.0886 29.6493 19.2522C30.1473 19.8184 30.0653 20.5852 29.4572 21.0482C28.8407 21.5177 28.0142 21.494 27.4025 20.9893C26.9917 20.6505 26.8485 20.259 26.9549 19.7668C26.9894 19.6077 27.1326 19.3589 27.2733 19.2139C27.7244 18.749 28.4188 18.6037 29.0669 18.8386ZM12.2941 22.6087C12.5272 22.6719 12.884 22.7237 13.0872 22.7237C13.2903 22.7237 13.4564 22.7443 13.4564 22.7695C13.4564 22.7947 13.3807 22.9354 13.2882 23.0822C13.1388 23.319 13.1146 23.7088 13.0719 26.5583L13.0238 29.7677L12.7379 29.3092C12.2987 28.6048 12.0457 28.0665 11.8148 27.344C11.6298 26.7656 11.5979 26.4148 11.558 24.5243C11.5142 22.4435 11.519 22.3677 11.6914 22.4295C11.7899 22.4648 12.061 22.5454 12.2941 22.6087ZM29.9897 24.1457C29.9897 25.9968 29.9067 26.7294 29.5885 27.6837C29.4074 28.2268 28.738 29.5006 28.5393 29.6802C28.4866 29.7279 28.4518 28.5654 28.4518 26.755C28.4518 23.7831 28.4293 23.522 28.1166 22.8696C28.0564 22.744 28.1048 22.7232 28.4655 22.72C28.6958 22.718 29.1006 22.648 29.3649 22.5645C29.6293 22.4809 29.878 22.4075 29.9177 22.4014C29.9573 22.3953 29.9897 23.1802 29.9897 24.1457ZM16.7562 22.8374C17.166 22.9859 17.5661 23.4051 17.6447 23.7681C17.748 24.2459 17.6074 24.6453 17.2166 24.9843C16.593 25.525 15.7027 25.525 15.0791 24.9843C14.505 24.4864 14.4589 23.7415 14.9694 23.2153C15.4186 22.7523 16.115 22.6051 16.7562 22.8374ZM25.991 22.8399C26.1674 22.9038 26.4294 23.09 26.5733 23.2535C27.0713 23.8197 26.9893 24.5866 26.3812 25.0496C25.7544 25.5268 24.9203 25.4965 24.3184 24.9745C23.7314 24.4654 23.6819 23.7465 24.1973 23.2153C24.6484 22.7504 25.3428 22.6051 25.991 22.8399ZM21.377 25.5075C21.5534 25.5714 21.8112 25.7527 21.9499 25.9104C22.4544 26.484 22.4053 27.1337 21.8192 27.642C21.187 28.1903 20.3651 28.1966 19.7125 27.6582C19.3018 27.3194 19.1586 26.9279 19.265 26.4357C19.2995 26.2766 19.4427 26.0278 19.5833 25.8828C20.0344 25.4179 20.7288 25.2726 21.377 25.5075ZM15.3701 26.61C15.6032 26.6733 15.9532 26.725 16.1479 26.725C16.466 26.725 17.062 26.5986 17.5176 26.4344C17.6761 26.3773 17.6858 26.5615 17.6858 29.6338C17.6858 31.9451 17.6552 32.8938 17.5803 32.8938C17.3504 32.8938 15.8598 32.1918 15.253 31.7977L14.6099 31.38V28.8769C14.6099 26.5255 14.6201 26.3774 14.7781 26.4344C14.8706 26.4677 15.137 26.5467 15.3701 26.61ZM24.598 26.61C24.8311 26.6733 25.1811 26.725 25.3758 26.725C25.694 26.725 26.2899 26.5986 26.7456 26.4344C26.9036 26.3774 26.9138 26.5255 26.9138 28.8769V31.38L26.2706 31.7977C25.6639 32.1918 24.1733 32.8938 23.9433 32.8938C23.8685 32.8938 23.8378 31.9451 23.8378 29.6338C23.8378 26.5615 23.8475 26.3773 24.006 26.4344C24.0985 26.4677 24.3649 26.5467 24.598 26.61ZM19.9841 29.2776C20.2172 29.3408 20.5672 29.3926 20.7618 29.3926C21.08 29.3926 21.676 29.2661 22.1316 29.1019C22.2892 29.0452 22.2998 29.175 22.2998 31.1646V33.2879L21.8538 33.3409C21.2822 33.4089 20.2414 33.4089 19.6698 33.3409L19.2238 33.2879V31.1646C19.2238 29.175 19.2344 29.0452 19.392 29.1019C19.4846 29.1353 19.751 29.2143 19.9841 29.2776Z" fill="#419E2C"/>
</svg>
