<svg width="41" height="41" viewBox="0 0 41 41" fill="none" xmlns="http://www.w3.org/2000/svg">
<path d="M39.9574 30.8268C39.5589 30.8268 39.2358 31.1499 39.2358 31.5484C39.2358 35.4475 36.0636 38.6197 32.1644 38.6197C31.7659 38.6197 31.4429 38.9428 31.4429 39.3413C31.4429 39.7398 31.7659 40.0629 32.1644 40.0629C36.8594 40.0629 40.679 36.2433 40.679 31.5484C40.679 31.1499 40.3559 30.8268 39.9574 30.8268Z" fill="#419E2C"/>
<path d="M32.1644 37.4652C35.427 37.4652 38.0813 34.8109 38.0813 31.5484C38.0813 31.1499 37.7582 30.8268 37.3597 30.8268C36.9612 30.8268 36.6382 31.1499 36.6382 31.5484C36.6382 34.0152 34.6312 36.0221 32.1644 36.0221C31.7659 36.0221 31.4429 36.3452 31.4429 36.7437C31.4429 37.1422 31.7659 37.4652 32.1644 37.4652Z" fill="#419E2C"/>
<path d="M32.1644 34.8676C33.9946 34.8676 35.4837 33.3785 35.4837 31.5484C35.4837 31.1499 35.1606 30.8268 34.7621 30.8268C34.3636 30.8268 34.0405 31.1499 34.0405 31.5484C34.0405 32.5828 33.1989 33.4244 32.1644 33.4244C31.7659 33.4244 31.4429 33.7475 31.4429 34.146C31.4429 34.5445 31.7659 34.8676 32.1644 34.8676Z" fill="#419E2C"/>
<path d="M31.7491 32.153C31.8899 32.2939 32.0746 32.3643 32.2593 32.3643C32.4439 32.3643 32.6286 32.2939 32.7695 32.1529C33.0513 31.8711 33.0513 31.4142 32.7695 31.1324L32.5161 30.879L36.2917 27.1034C36.4271 26.9681 36.5031 26.7845 36.5031 26.5932C36.5031 26.4018 36.4271 26.2182 36.2917 26.083C34.4234 24.2147 31.7278 23.668 29.3736 24.4395L28.2281 23.2941L30.0436 21.4786C30.3254 21.1968 30.3254 20.7399 30.0436 20.4582L25.4013 15.8159L27.2345 13.9826L29.5136 16.2616C29.6544 16.4025 29.8391 16.473 30.0238 16.473C30.2084 16.473 30.3931 16.4026 30.534 16.2616L39.9223 6.87324C40.0577 6.73797 40.1337 6.5544 40.1337 6.36304C40.1337 6.17168 40.0577 5.98811 39.9223 5.85284L34.344 0.274238C34.2088 0.138872 34.0252 0.0628662 33.8338 0.0628662C33.6425 0.0628662 33.4589 0.138872 33.3236 0.274238L23.9352 9.66263C23.7999 9.7979 23.7239 9.98147 23.7239 10.1728C23.7239 10.3642 23.7999 10.5478 23.9352 10.683L26.2142 12.962L24.381 14.7953L20.8795 11.2939C19.4899 9.90431 17.3265 9.75067 15.7644 10.8305L14.1295 9.19573C13.8477 8.91393 13.3908 8.91393 13.1091 9.19573L9.81228 12.4925C9.67692 12.6278 9.60091 12.8114 9.60091 13.0027C9.60091 13.1941 9.67692 13.3777 9.81228 13.5129L11.4466 15.1471C10.9851 15.8122 10.7357 16.6001 10.7357 17.4267C10.7357 18.4981 11.153 19.5052 11.9105 20.2629L15.412 23.7643L13.5787 25.5976L11.2997 23.3186C11.0179 23.0368 10.561 23.0368 10.2793 23.3186L0.890791 32.7071C0.608994 32.9889 0.608994 33.4458 0.890791 33.7275L6.4693 39.306C6.61015 39.4468 6.79487 39.5174 6.9795 39.5174C7.16412 39.5174 7.34884 39.4469 7.48969 39.306L16.8781 29.9176C17.1599 29.6358 17.1599 29.1789 16.8781 28.8972L14.5991 26.6182L16.4324 24.7849L21.0746 29.4272C21.2099 29.5626 21.3935 29.6386 21.5848 29.6386C21.7762 29.6386 21.9598 29.5626 22.095 29.4272L23.9109 27.6114L25.0562 28.7566C24.2845 31.111 24.8309 33.8069 26.6994 35.6753C26.8403 35.8163 27.025 35.8867 27.2096 35.8867C27.3943 35.8867 27.579 35.8163 27.7198 35.6753L31.4955 31.8997L31.7491 32.153ZM33.1486 11.6062L28.5906 7.04815L30.7092 4.92952L35.2673 9.48753L33.1486 11.6062ZM33.8338 1.80493L38.3918 6.36294L36.2876 8.46723L31.7295 3.90922L33.8338 1.80493ZM27.5701 8.06864L32.1281 12.6267L30.0238 14.7309L25.4658 10.1729L27.5701 8.06864ZM7.6647 27.974L12.2227 32.532L10.1041 34.6506L5.54607 30.0926L7.6647 27.974ZM6.9795 37.7753L2.42148 33.2173L4.52577 31.113L9.08379 35.671L6.9795 37.7753ZM13.2432 31.5116L8.68519 26.9536L10.7895 24.8493L15.3475 29.4073L13.2432 31.5116ZM20.465 12.9203L26.5873 19.0427L19.6592 25.9708L13.5368 19.8484L20.465 12.9203ZM18.0435 11.5635C18.5136 11.5635 18.9834 11.6923 19.3963 11.9482L12.5643 18.7802C12.3136 18.3778 12.1789 17.9128 12.1789 17.4268C12.1789 16.7409 12.446 16.0962 12.931 15.6112L16.2278 12.3144C16.7284 11.8138 17.3858 11.5635 18.0435 11.5635ZM13.6193 10.7264L14.697 11.8042L13.5589 12.9423L12.4207 14.0805L11.3429 13.0027L13.6193 10.7264ZM21.5848 27.8965L20.6796 26.9913L27.6077 20.0632L28.513 20.9684L21.5848 27.8965ZM24.9315 26.591L27.2078 24.3146L27.9754 25.0822C27.521 25.3581 27.0916 25.6907 26.6993 26.0829C26.3073 26.4749 25.9748 26.9042 25.6989 27.3584L24.9315 26.591ZM27.244 34.1102C25.6522 32.0189 25.8108 29.0124 27.7198 27.1034C28.7608 26.0624 30.1281 25.542 31.4956 25.542C32.6357 25.542 33.7757 25.9037 34.7267 26.6275L27.244 34.1102Z" fill="#419E2C"/>
</svg>
