<svg width="41" height="41" viewBox="0 0 41 41" fill="none" xmlns="http://www.w3.org/2000/svg">
<g clip-path="url(#clip0)">
<path d="M30.0145 39.6394L26.8524 28.8606C26.8523 28.8599 26.852 28.8593 26.8519 28.8586L25.7235 25.0124C25.7235 25.012 25.7233 25.0116 25.7232 25.0113L24.164 19.6962C24.1637 19.6952 24.1635 19.6942 24.1631 19.6932L21.6824 11.2366C22.7744 10.8309 23.5546 9.77852 23.5546 8.54704C23.5546 6.96547 22.2679 5.67883 20.6864 5.67883C19.1049 5.67883 17.8182 6.96555 17.8182 8.54704C17.8182 9.77852 18.5984 10.831 19.6905 11.2366L14.5209 28.8588C14.5208 28.8594 14.5206 28.86 14.5204 28.8607L11.3584 39.6395C11.2363 40.0554 11.4746 40.4916 11.8906 40.6137C12.307 40.7357 12.7427 40.4975 12.8648 40.0814L13.3456 38.4425L20.6865 33.5935L28.0274 38.4425L28.5082 40.0814C28.6086 40.4237 28.9217 40.6457 29.2612 40.6457C29.3343 40.6457 29.4088 40.6353 29.4824 40.6137C29.8982 40.4916 30.1365 40.0554 30.0145 39.6394ZM19.3881 8.54688C19.3881 7.83102 19.9705 7.2486 20.6863 7.2486C21.4022 7.2486 21.9846 7.83102 21.9846 8.54688C21.9846 9.26274 21.4022 9.84516 20.6863 9.84516C19.9705 9.84516 19.3881 9.26282 19.3881 8.54688ZM20.6863 13.4188L22.3654 19.1427H19.0072L20.6863 13.4188ZM18.5467 20.7126H22.826L23.9253 24.4601H17.4474L18.5467 20.7126ZM14.0301 36.1087L15.7287 30.3187L19.2622 32.6527L14.0301 36.1087ZM16.191 28.7426L16.9868 26.03H24.386L25.1817 28.7426L20.6863 31.712L16.191 28.7426ZM22.1106 32.6528L25.6441 30.3188L27.3427 36.1088L22.1106 32.6528Z" fill="#419E2C"/>
<path d="M16.9548 4.8154C17.2613 4.50884 17.2613 4.01181 16.9548 3.70532C16.6482 3.39876 16.1512 3.39876 15.8446 3.70532C13.1752 6.37501 13.1752 10.719 15.8447 13.3887C15.998 13.542 16.1988 13.6186 16.3998 13.6186C16.6006 13.6186 16.8015 13.5419 16.9548 13.3887C17.2613 13.0821 17.2613 12.5851 16.9548 12.2786C14.8971 10.221 14.8971 6.87298 16.9548 4.8154Z" fill="#419E2C"/>
<path d="M25.5281 3.70539C25.2215 3.39882 24.7246 3.39882 24.4179 3.70539C24.1113 4.01195 24.1113 4.50898 24.4179 4.81546C26.4755 6.87304 26.4755 10.2211 24.4179 12.2787C24.1114 12.5851 24.1114 13.0822 24.418 13.3887C24.5713 13.5419 24.7721 13.6186 24.9731 13.6186C25.174 13.6186 25.3748 13.5419 25.5281 13.3887C28.1977 10.719 28.1977 6.375 25.5281 3.70539Z" fill="#419E2C"/>
<path d="M14.1249 1.98557C14.4315 1.67901 14.4315 1.18198 14.1249 0.875491C13.8183 0.568928 13.3214 0.568928 13.0147 0.875491C10.9657 2.92463 9.83716 5.64901 9.83716 8.54698C9.83716 11.4449 10.9657 14.1693 13.0147 16.2185C13.1681 16.3717 13.3689 16.4484 13.5699 16.4484C13.7709 16.4484 13.9716 16.3717 14.125 16.2185C14.4315 15.9119 14.4315 15.4149 14.125 15.1084C10.5068 11.4903 10.5068 5.60354 14.1249 1.98557Z" fill="#419E2C"/>
<path d="M29.9302 2.86279C29.7028 2.49373 29.2192 2.37873 28.8501 2.60607C28.4811 2.83349 28.3662 3.31701 28.5935 3.68607C30.8552 7.35748 30.3018 12.0545 27.248 15.1083C26.9414 15.4148 26.9414 15.9119 27.248 16.2184C27.4013 16.3717 27.6021 16.4483 27.8031 16.4483C28.0039 16.4483 28.2048 16.3717 28.3581 16.2184C30.0942 14.4822 31.1992 12.1847 31.4693 9.7492C31.7352 7.35138 31.1886 4.90568 29.9302 2.86279Z" fill="#419E2C"/>
<path d="M27.8029 0.645569C26.7928 0.645569 26.7911 2.21549 27.8029 2.21549C28.8131 2.21549 28.8147 0.645569 27.8029 0.645569Z" fill="#419E2C"/>
</g>
<defs>
<clipPath id="clip0">
<rect width="40" height="40" fill="white" transform="translate(0.686035 0.645569)"/>
</clipPath>
</defs>
</svg>
